<?xml version="1.0" encoding="utf-8"?>
<!-- Generator: Adobe Illustrator 27.1.1, SVG Export Plug-In . SVG Version: 6.00 Build 0)  -->
<svg version="1.1" id="Layer_1" xmlns="http://www.w3.org/2000/svg" xmlns:xlink="http://www.w3.org/1999/xlink" x="0px" y="0px"
	 viewBox="0 0 631.03 734.81" style="enable-background:new 0 0 631.03 734.81;" xml:space="preserve">
<style type="text/css">
	.st0{fill:#FFFFFF;}
</style>
<g>
	<path d="M369.37,549.65c-9.26,9.18-18.18,17.87-26.94,26.72c-8.75,8.85-17.35,17.86-26.97,27.79
		c-9.48-9.83-18.08-18.82-26.76-27.73c-8.7-8.93-17.47-17.79-26.77-27.25c-1.75,2.98-3.08,5.2-4.36,7.44
		c-18.04,31.43-42.76,55.61-76.74,69.23c-21.65,8.68-44.12,11.79-67.02,5.41c-11.14-3.1-20.65-8.76-23.42-21.36
		c-0.39-1.77-0.56-3.63-0.57-5.44c-0.04-8.16-5.9-15.1-14.12-16.28c-1.49-0.21-3.26,0.21-4.65,0.87c-5.1,2.41-9.16,2.09-13.25-1.93
		c-7.42-7.29-9.35-16.51-7.39-26.25c1.08-5.35,1.14-8.65-3.96-12.37c-9.97-7.27-10.89-18.6-10.14-29.86
		c1.32-19.77,14.98-32.24,34.81-32.47c3.61-0.04,7.33-0.54,10.8-1.53c3.85-1.11,6.2-3.99,5.69-8.29c-0.51-4.3-3.69-5.84-7.46-5.85
		c-3.97-0.01-7.96,0.4-11.9,0.95c-8.13,1.13-16.23,2.2-24.02-1.54c-7.33-3.52-9.19-7.84-6.79-15.59c1.46-4.73-1.12-7.32-6.91-7.27
		c-5.09,0.04-10.38,0.61-15.24-0.51c-9.63-2.21-16.9-14.15-14.95-23.8c6.4,3.77,13.27,6.21,20.41,3.84
		c4.58-1.52,8.92-4.3,12.83-7.22c6.65-4.98,13.77-6.07,21.11-2.85c2.87,1.26,4.89,4.58,7.14,7.1c1.24,1.39,2.33,4.49,3.17,4.38
		c2.95-0.38,7.45-1.03,8.36-2.97c5.34-11.46,15.18-10.92,24.83-9.69c10.09,1.28,18.45,6.19,24.41,14.89
		c1.46,2.14,4.02,4.18,6.47,4.87c13.15,3.7,22.74,17.11,21.66,30.95c-1.53,19.52-15.99,32.27-37.21,31.5
		c-10.61-0.38-17.5,3.78-22.25,12.65c-0.62,1.16-1.09,2.45-1.39,3.74c-1.72,7.28-0.41,8.82,6.82,7.49
		c13.72-2.53,26.77-1.23,39.22,5.57c2.62,1.43,6.21,0.94,9.16,1.9c10.43,3.39,19.9,9.04,31.17,10.79
		c7.78,1.2,12.07,8.78,14.34,16.75c1.13-0.31,1.98-0.35,2.61-0.74c13.93-8.57,25.93-19.18,35.19-32.78
		c2.06-3.03,2.01-5.25-0.85-7.72c-4.77-4.13-9.32-8.52-15.08-13.82c7.54-7.11,13.99-13.57,20.87-19.54
		c4.51-3.91,6.59-7.99,4.29-13.85c-4.24-10.8-8.3-21.67-12.54-32.48c-0.58-1.49-1.74-2.75-3.06-4.78c-3.28,3.21-6.23,6.04-9.12,8.93
		c-8.97,8.94-18.03,17.79-26.8,26.91c-2.97,3.09-4.72,2.71-7.58-0.17c-31.34-31.55-62.74-63.03-94.34-94.31
		c-3.3-3.27-2.48-4.93,0.18-7.55c11.5-11.34,22.83-22.86,34.41-34.13c2.65-2.58,3.23-4.74,1.86-8.27
		c-5.54-14.31-5.47-28.91-1.87-43.71c0.47-1.92-0.33-4.98-1.7-6.39c-11.57-11.98-23.37-23.74-35.21-35.45
		c-1.34-1.32-3.33-2.02-5.09-2.87c-10.3-4.95-20.87-9.39-30.84-14.93c-6.65-3.7-10.33-10.2-11.14-18.03
		c-0.8-7.73,1.92-13.06,8.85-16.84c5.29-2.88,8.65-7.35,10.16-13.03c1.46-5.52,0.33-10.33-4.41-14.32
		c-12.06-10.16-9.8-24.4,4.39-31.59c8.96-4.54,16.75-11.78,17.41-21.81c0.99-15.08,20.58-21.01,32.27-10.79
		c1.63,1.42,3.1,3.04,4.78,4.39c6.85,5.5,17.02,3.94,21.96-3.3c6.54-9.59,20.22-12.06,29.15-4.42c4.55,3.89,8.51,9.03,11.22,14.38
		c5,9.88,8.86,20.33,13.27,30.52c0.51,1.19,1.35,2.31,2.27,3.24c20.23,20.3,40.48,40.57,60.75,60.83c0.57,0.57,1.29,0.99,2.8,2.13
		c7.53-7.77,15.04-15.5,22.54-23.24c7.81-8.06,7.84-8.09-0.02-15.96c-18.35-18.39-36.7-36.79-55.15-55.09
		c-2.54-2.51-2.89-4.11-0.14-6.84c32.11-31.94,64.1-64,96.13-96.02c0.68-0.68,1.51-1.21,3.69-2.93c1.93,2.5,3.61,5.22,5.81,7.43
		c30.33,30.43,60.69,60.83,91.19,91.1c3,2.98,2.93,4.7,0.02,7.57c-19.43,19.2-38.7,38.57-58.04,57.85
		c-4.82,4.81-4.91,4.81-0.03,9.72c7.86,7.91,15.79,15.77,23.7,23.63c0.8,0.79,1.74,1.44,3.87,3.18c3.55-4.06,6.84-8.26,10.57-12.04
		c16.52-16.7,33.22-33.23,49.68-49.98c1.97-2,2.99-4.97,4.28-7.58c5.97-12.03,11.23-24.48,18.02-36.02
		c4.93-8.37,13.46-11.56,23.41-9.69c4.82,0.91,8.57,3.02,11.25,7.39c5.44,8.84,16.36,10.12,23.84,2.73
		c6.84-6.76,14.51-9.95,23.99-6.93c6.02,1.92,9.81,5.87,10.86,12.39c1.84,11.42,8.61,19.48,18.73,24.29
		c7.87,3.74,10.92,9.76,11.32,17.8c0.24,4.78-1.48,8.65-5.19,11.86c-10.13,8.79-9.33,20.59,1.74,28.14
		c13.83,9.43,14.62,25.37,0.49,34.94c-9.64,6.53-20.96,10.58-31.49,15.8c-2.17,1.08-4.55,2.07-6.24,3.72
		c-11.42,11.19-22.59,22.64-34.05,33.79c-2.66,2.58-3.05,4.77-2.13,8.32c3.77,14.54,3.52,29.05-2.09,43.15
		c-1.26,3.17-0.67,5.12,1.68,7.42c12.11,11.91,24.06,23.98,36.05,36.01c0.68,0.68,1.15,1.56,2.55,3.48
		c-4.52,4.12-9.22,8.09-13.55,12.41c-28.3,28.22-56.56,56.49-84.73,84.85c-2.83,2.85-4.56,2.64-7.26-0.14
		c-10.46-10.74-21.15-21.26-31.76-31.85c-1.26-1.26-2.61-2.43-4.26-3.97c-6.58,9.41-10.56,19.39-13.62,29.77
		c-4.23,14.35-4.19,14.36,6.23,24.93c4.79,4.86,9.59,9.72,14.36,14.6c0.32,0.33,0.41,0.89,0.96,2.19
		c-4.43,4.28-9.05,8.81-13.75,13.24c-1.9,1.79-2.92,3.57-1.28,6.06c9.62,14.6,22.19,26.02,37.29,34.73
		c0.24,0.14,0.64-0.02,1.39-0.06c2.42-8.96,8.04-17.3,17.18-17.63c11.02-0.39,18.56-7.73,28.4-9.9c8.82-1.94,17.25-6.05,26.12-7.32
		c8.06-1.15,16.53-0.23,24.71,0.69c4,0.45,4.67-0.65,4.67-3.97c0.02-11.03-10.37-21.04-21.36-20.49
		c-18.85,0.95-32.91-7.32-38.32-22.54c-5.1-14.34,1.83-33.31,15.14-38.17c6.51-2.38,10.63-6.26,15.13-11.03
		c9.68-10.26,22.11-13.37,35.67-9.65c3.23,0.89,6.61,4.01,8.33,7.01c2.5,4.35,6.05,4.81,10.07,4.88c0.79,0.01,2.01-1.1,2.34-1.96
		c4.04-10.44,13.71-14.47,23.99-9.66c2.37,1.11,4.54,2.77,6.59,4.44c9.27,7.58,18.96,8.49,29.6,2.65c0.55-0.3,1.15-0.49,1.76-0.74
		c2.47,8.69-4.87,20.89-14.55,23.66c-3.72,1.06-7.83,0.84-11.77,1.03c-2.47,0.12-5.03-0.47-7.41-0.03
		c-3.08,0.56-4.69,2.94-3.52,5.96c1.48,3.85,3.49,8-0.24,11.04c-3.85,3.14-8.4,6.29-13.1,7.27c-5.35,1.12-11.21-0.09-16.84-0.39
		c-4.31-0.23-8.72-1.32-12.86-0.66c-2.51,0.4-5.63,2.96-6.64,5.33c-1.46,3.39,0.84,6.74,4.24,7.96c3.53,1.27,7.42,2.08,11.16,2.13
		c28.88,0.41,46.02,30.13,31.57,55.31c-2,3.48-5.17,6.55-8.42,8.97c-2.62,1.95-3.26,3.52-2.36,6.56c2.76,9.24,1.76,18.17-3.36,26.42
		c-4.48,7.21-9.53,8.45-17.31,5.1c-1.61-0.69-4.14-0.67-5.66,0.14c-3.63,1.94-7.06,4.34-10.24,6.96c-1.24,1.02-2.15,3.11-2.23,4.75
		c-0.82,18.25-7.2,26.55-24.67,31.16c-21.4,5.65-42.4,3.09-62.79-4.42c-35.82-13.2-61.53-38.17-80.36-70.8
		C371.97,554.2,370.76,552.08,369.37,549.65z M356.9,225.92c3.66-3.9,7.23-8.32,11.44-12.04c3.79-3.35,3.75-5.39,0.07-9.03
		c-33.14-32.81-66.02-65.88-99.1-98.74c-2.96-2.94-3-4.65-0.03-7.56c14.26-13.98,28.4-28.09,42.4-42.34
		c2.87-2.92,4.66-3.07,7.58-0.07c11.51,11.79,23.27,23.34,34.91,35c3.6,3.61,7.13,7.3,11.72,12.01
		c-13.85,13.41-27.31,26.44-41.52,40.19c4.89,4.56,9.47,8.43,13.54,12.78c2.79,2.98,4.55,2.66,7.25-0.08
		c13.78-14.01,27.68-27.9,41.65-41.72c3.88-3.84,8.14-7.28,12.26-10.93c-1.54-1.98-2.06-2.83-2.74-3.52
		c-25.89-25.91-51.83-51.76-77.64-77.74c-2.91-2.93-4.5-1.84-6.85,0.52c-23.02,23.12-46.14,46.15-69.22,69.22
		c-3.37,3.37-6.64,6.83-9.71,9.98C274.29,143.25,315.22,184.21,356.9,225.92z M398.06,502.41c-41.59-41.64-82.6-82.7-124.27-124.42
		c-4.06,4.29-8.29,8.99-12.78,13.42c-2.43,2.39-1.95,3.89,0.27,6.1c29.99,29.83,59.9,59.74,89.82,89.63
		c4.66,4.66,9.3,9.34,14.12,14.19c-16.16,16.17-31.82,31.79-47.41,47.5c-2.32,2.33-3.64,0.97-5.3-0.7
		c-12.24-12.25-24.45-24.53-36.82-36.63c-3.29-3.22-7.12-5.88-11.85-9.72c15.05-14.68,28.46-27.76,42.76-41.7
		c-4.48-4.06-8.85-7.46-12.5-11.51c-3.33-3.69-5.53-3.88-9.11-0.18c-12.16,12.56-24.6,24.85-37.05,37.13
		c-5.19,5.12-10.67,9.94-16.02,14.9c1.41,1.66,1.73,2.26,2.2,2.72c26.21,26.27,52.45,52.5,78.6,78.84c2.6,2.62,4.07,1.47,6.07-0.55
		c11.48-11.59,23.02-23.12,34.58-34.63C368.33,531.88,383.34,517.02,398.06,502.41z M342.24,292.59
		c35.33-35.52,70.61-71,105.71-106.29c16.61,16.67,32.86,32.99,50.09,50.29c-13.09,12.74-26.49,25.79-39.97,38.91
		c5.83,5.83,11.06,11.08,15.59,15.61c19.01-18.81,37.96-37.57,57.15-56.55c-0.9-0.95-1.99-2.17-3.15-3.33
		c-24.84-24.84-49.69-49.67-74.52-74.52c-4.6-4.61-4.59-4.7-9.17-0.12c-35.46,35.42-70.88,70.88-106.37,106.26
		c-4.2,4.19-8.8,7.99-12.89,11.68C331.07,281.06,336.34,286.5,342.24,292.59z M157.48,311.16c-0.46,0.29-0.91,0.57-1.37,0.86
		c-0.42,0.26-0.92,0.44-1.26,0.78c-17.68,17.65-35.33,35.35-53.06,52.95c-2.67,2.65-1.14,4.12,0.83,6.08
		c25.35,25.27,50.63,50.6,75.95,75.9c1.24,1.23,2.63,2.31,3.28,2.87c41.39-41.39,82.32-82.31,122.94-122.93
		c-4.88-5.16-10.07-10.65-15.75-16.67c-6.84,6.99-13.29,13.7-19.86,20.28c-27.05,27.11-54.1,54.22-81.23,81.25
		c-6.55,6.52-4.99,6.05-11.3-0.24c-13.45-13.4-26.79-26.91-40.37-40.17c-3.06-2.98-2.8-4.75,0.11-7.58
		c11.22-10.92,22.26-22.02,33.2-33.22c1.17-1.19,2.26-4.34,1.62-5.12C166.9,320.97,162.11,316.13,157.48,311.16z M182.93,153.4
		c-27.68,27.54-55.13,54.87-82.87,82.47c0.9,0.96,1.99,2.18,3.15,3.33c19.89,19.92,39.79,39.84,59.69,59.76
		c18.84,18.86,37.68,37.72,56.54,56.55c1.55,1.55,2.91,4.06,5.69,1.52c5-4.57,10.07-9.06,16.07-14.45
		c-36.8-36.61-72.29-71.91-107.36-106.8c16.53-16.48,32.85-32.74,49.34-49.18c0.86,0.79,2.1,1.87,3.27,3.03
		c10.96,10.94,21.87,21.94,32.92,32.79c1.2,1.18,4.16,2.57,4.71,2.09c5.37-4.82,10.4-10.02,14.92-14.5
		C219.69,190.52,201.1,171.74,182.93,153.4z M408.1,376.85c-4.91,5.16-8.79,9.72-13.19,13.7c-3.14,2.84-3.06,4.62-0.1,7.54
		c16.94,16.71,33.75,33.57,50.49,50.48c2.48,2.51,4.01,2.37,6.44-0.08c25.21-25.4,50.44-50.77,75.91-75.9
		c3.66-3.61,3.07-5.41-0.17-8.63c-34.35-34.18-68.58-68.48-102.79-102.8c-5.38-5.4-10.47-11.08-15.56-16.48
		c-6.29,6.27-11.64,11.6-17.2,17.14c1.23,1.31,2.54,2.8,3.94,4.2c32.75,32.72,65.47,65.47,98.33,98.08c3.12,3.09,3.76,4.94,0.19,8.3
		c-8.49,7.97-16.6,16.36-24.72,24.71c-6.81,7.01-13.42,14.22-20.46,21.69C435.07,404.38,422.07,391.1,408.1,376.85z M381.58,535.79
		c-1.94,2.29-4.25,5.38-6.95,8.08c-2.13,2.13-2.39,3.94-0.97,6.58c19.49,36.18,47.25,63,86.97,75.73
		c18.52,5.93,37.59,7.6,56.59,1.85c9.97-3.02,18.87-8.25,20.24-19.65c0.66-5.47-1.17-11.43-2.71-16.93
		c-2.59-9.23,2.35-16.03,11.99-15.65c4.96,0.2,8.89,2.27,11.96,6.24c5.74,7.43,11.38,6.92,15.75-1.59
		c6.33-12.32,4.32-23.92-3.94-34.57c-13.41-17.29-41.54-26.59-62.62-20.86c-0.65,0.18-1.14,0.9-2.47,2.01
		c2.3,0.33,3.69,0.6,5.09,0.72c13.48,1.14,23.85,10.48,25.94,23.72c1.88,11.94-1.32,22.52-9.69,31.26
		c-9.63,10.06-22.03,14.16-35.49,15.08c-32.29,2.22-59.34-10.24-82.53-31.48C399.16,557.56,391.32,546.87,381.58,535.79z
		 M125.48,526.86c-1.25-1-1.68-1.58-2.24-1.76c-21.7-6.98-54.3,5.43-65.74,25.18c-6.29,10.87-6.47,21.94,0.56,32.56
		c4.01,6.06,9.4,5.95,13.57,0.21c0.69-0.94,1.34-1.92,2.13-2.77c4.4-4.75,12.71-5.91,18.43-2.62c4.88,2.81,6.02,7.59,3.55,14.97
		c-0.42,1.26-0.99,2.47-1.39,3.74c-3.85,12.19,0.19,23.22,11.95,28.25c7.79,3.33,16.46,5.84,24.87,6.33
		c56.91,3.31,104.55-37.56,126.29-81.24c0.63-1.26,0.36-3.67-0.48-4.83c-2.49-3.45-5.48-6.54-8.52-10.06
		c-1.55,1.87-2.16,2.43-2.56,3.12c-8.91,15.4-20.96,27.96-35.41,38.13c-24.14,17-50.48,26.37-80.37,20.24
		c-17.23-3.53-30.74-12.47-35.14-30.67c-3.4-14.06,1.14-31.46,19.85-36.69C117.97,528.07,121.24,527.67,125.48,526.86z M3.92,429.37
		c1.22,9.45,10.92,16.43,21.01,15.37c3.43-0.36,7.01-0.61,10.37-0.03c4.84,0.84,6.91,5.12,5.43,9.89
		c-2.23,7.19-1.17,11.02,6.09,12.7c6.9,1.59,14.38,0.86,21.6,0.87c4.3,0,8.62-0.93,12.9-0.73c3.98,0.18,7.37,2.11,8.87,6.2
		c1.47,4,0.35,7.53-2.26,10.68c-0.88,1.07-1.89,2.03-2.93,3.14c9.2,4.61,23.93-0.37,30.15-9.87c3.59-5.48,5.13-11.56,2.11-17.5
		c-2.95-5.8-9.02-5.61-14.57-5.15c-6.8,0.56-13.56,2.04-20.35,2.09c-5.87,0.05-11.84-0.98-17.57-2.34
		c-1.61-0.38-3.77-3.93-3.42-5.53c0.37-1.67,3.4-3.74,5.37-3.86c3.36-0.2,7.35,0.1,10.12,1.77c8.72,5.25,17.75,5.62,27.63,4.88
		c14.62-1.1,21.22,9.35,15.66,23.01c-3.08,7.56-9.08,12.02-17.15,15.9c2.67,1.47,4.4,3.16,6.27,3.33
		c12.96,1.23,24.52-1.62,32.9-12.55c11.68-15.24,4.03-38.34-14.18-43.73c-3.05-0.9-6.21-3.33-8.08-5.94
		c-7.54-10.51-20.99-16.19-33.76-13.62c-5.9,1.19-8.74,4.34-9.59,10.53c-0.27,1.97-0.51,3.99-1.1,5.88
		c-1.65,5.25-8.34,7.54-14.76,5.17c-4.41-1.62-5.25-4.74-2.51-10.63c1.86-4,0.46-6.94-2.82-8.97c-5.76-3.56-12.61-4-17.4,0.23
		c-10.02,8.84-20.88,11.7-33.62,8.54C4.22,429.07,4.06,429.27,3.92,429.37z M526.8,491.37c-4.63-3.87-9.04-6.71-12.34-10.51
		c-5.51-6.35-7.19-14.12-3.65-21.89c3.41-7.5,10.87-8.03,17.71-7.03c8.75,1.27,16.49,0.04,24.27-4.28
		c3.53-1.96,8.29-2.12,12.51-2.24c1.53-0.04,4.1,2.21,4.42,3.79c0.32,1.52-1.34,3.81-2.7,5.2c-1.05,1.08-2.95,1.73-4.52,1.82
		c-5.78,0.34-11.6,0.68-17.37,0.43c-7.14-0.31-14.24-1.6-21.37-1.73c-7.78-0.14-11.57,4.23-11.39,11.95
		c0.23,9.71,8.52,19.14,19.27,21.42c4.67,0.99,9.6,2.53,14.31-1.03c-0.72-0.76-1.15-1.26-1.62-1.7c-3.57-3.35-5.42-7.34-3.5-12.1
		c1.94-4.79,6.19-6.32,10.98-6.22c3.64,0.07,7.27,0.7,10.91,0.91c5.63,0.34,11.39,1.36,16.85,0.51c3.91-0.61,7.73-3.41,11-5.98
		c3.33-2.61,0.23-5.78-0.49-8.67c-1.15-4.58,1-8.58,5.72-9.32c3.37-0.53,6.94-0.28,10.37,0.08c9.94,1.06,20.03-6.31,20.91-15.71
		c-0.64-0.04-1.31-0.24-1.89-0.08c-11.34,3.23-21.27,1.14-29.95-7.18c-3.97-3.81-9.23-4.46-14.54-3.55
		c-7.57,1.29-9.98,5.85-6.98,12.83c1.99,4.63,0.06,8.28-4.89,9.23c-9.09,1.76-13.22-1.38-14.41-10.97
		c-0.84-6.77-3.5-9.84-9.55-11.05c-12.8-2.56-26.44,3.29-34.08,14.01c-1.77,2.48-4.81,4.78-7.72,5.62
		c-12.47,3.63-21.2,16.41-19.65,29.33c2.45,20.42,20.76,29.25,38.72,26.9C523.86,493.95,525.39,492.25,526.8,491.37z M396.82,520.04
		c-2.94,3.68-4.89,6.89-7.57,9.28c-3.07,2.75-2.74,5.01-0.84,8.17c7.29,12.15,16.65,22.46,27.68,31.21
		c22.51,17.86,47.54,28.73,76.98,25.79c14.6-1.46,27.52-6.74,35.84-19.76c7.44-11.65,6.3-27.17-2.35-36.15
		c-8.64-8.98-25.36-11.21-36.54-4.54c-2.8,1.67-4.96,4.38-7.42,6.62c0.35,0.32,0.7,0.64,1.06,0.96c2.19-0.74,4.35-1.64,6.59-2.18
		c12.54-2.98,23.23,5.69,20.93,17.07c-1.58,7.79-7.72,10.95-14.53,12.77c-20.34,5.44-39.2,1-57.08-9.15
		C422.82,550.62,408.61,538.31,396.82,520.04z M148.09,540.79c-0.98-1.25-1.83-2.65-2.97-3.73c-12.4-11.78-36.42-7.97-44.68,7.05
		c-7.32,13.3-2.31,31.33,11.33,41.02c8.84,6.28,18.8,9.02,29.47,9.67c26.05,1.59,48.64-7.55,69.19-22.65
		c13.13-9.65,24.31-21.22,32.45-35.46c0.8-1.39,1.49-4.02,0.79-4.89c-2.99-3.65-6.53-6.86-10.02-10.38
		c-1.09,1.23-1.73,1.78-2.16,2.46c-7.23,11.44-16.84,20.59-27.76,28.37c-15.7,11.19-32.58,19.48-52.48,19.3
		c-8.72-0.08-17.34-0.99-24.94-5.84c-5.1-3.25-7.41-7.98-6.64-14.04c0.72-5.67,3.99-9.24,9.24-11.33
		C135.26,537.8,141.27,539.1,148.09,540.79z M219.04,102.84c1.06,1.15,2.33,2.63,3.71,4.01c30.14,30.16,60.3,60.3,90.45,90.44
		c10.95,10.95,21.88,21.92,32.9,32.8c0.93,0.92,2.62,1.91,3.65,1.65c1.19-0.3,2.98-2.09,2.84-2.98c-0.24-1.57-1.53-3.16-2.75-4.38
		c-38.13-38.19-76.31-76.33-114.47-114.48c-2.42-2.42-4.79-4.91-6.66-6.84c29.33-29.47,58.16-58.45,87.18-87.61
		c0.57,0.45,1.4,0.98,2.08,1.66c27.33,27.3,54.61,54.65,82.03,81.86c2.8,2.78,2.31,4.35-0.2,6.83
		c-16.59,16.39-33.07,32.89-49.57,49.37c-2.08,2.08-4.08,4.24-6.56,6.82c1.67,1.63,2.93,2.86,4.03,3.93
		c21.48-21.59,42.57-42.79,63.33-63.65c-31.64-31.67-63.8-63.86-95.74-95.83C283.52,38.29,251.44,70.4,219.04,102.84z
		 M218.98,501.76c1.38,1.52,2.87,3.3,4.5,4.94c29.19,29.18,58.47,58.28,87.52,87.6c3.59,3.62,5.5,3.56,9.03-0.02
		c22.79-23.1,45.79-46,68.79-68.91c7.89-7.86,15.95-15.53,24.1-23.45c-2.03-2.26-3.39-3.94-4.91-5.45
		c-40.87-40.84-81.79-81.64-122.59-122.55c-3.69-3.7-5.5-2.19-7.77,1.85c41.74,41.62,83.53,83.29,125.54,125.18
		c-1.81,1.94-2.99,3.31-4.27,4.58c-26.61,26.61-53.29,53.14-79.78,79.87c-3.07,3.1-4.65,2.73-7.48-0.13
		c-23.8-24-47.71-47.9-71.68-71.73c-3.97-3.95-8.44-7.4-13.83-12.08c21.09-20.81,40.8-40.26,60.74-59.93
		c-1.62-1.48-2.91-2.66-3.93-3.59C261.46,459.39,240.3,480.5,218.98,501.76z M258.77,260.83c32.78,32.78,65.1,65.1,96.84,96.85
		c5.39-4.97,10.96-10.11,15.83-14.6c-32.56-32.6-64.84-64.91-96.97-97.07C269.44,250.75,264.02,255.87,258.77,260.83z
		 M423.89,312.12c-32.95,32.86-65.38,65.2-97.07,96.79c4.68,4.98,9.75,10.38,15.02,16c1.44-1.35,2.79-2.56,4.07-3.83
		c20.16-20.1,40.31-40.2,60.45-60.32c9.89-9.88,19.75-19.8,29.6-29.73c1.5-1.51,3.44-2.92,1.03-5.34
		C432.34,320.99,427.79,316.17,423.89,312.12z M207.7,290.91c32.3-32.23,64.73-64.59,97.67-97.46c-3.53-3.36-7.79-6.89-11.4-10.99
		c-3.4-3.85-5.58-3.45-9.09,0.09c-24.13,24.4-48.49,48.57-72.74,72.84c-6.66,6.67-13.24,13.42-19.7,19.97
		C198.06,281.08,203.26,286.38,207.7,290.91z M384.45,401.06c1.26,1.51,1.94,2.45,2.75,3.26c19.42,19.45,38.89,38.84,58.23,58.36
		c2.64,2.67,4.21,1.96,6.5-0.34c29.84-29.96,59.71-59.91,89.74-89.68c3.42-3.39,3.47-5.22,0.02-8.65
		c-36.63-36.4-73.08-72.98-109.6-109.5c-5.6-5.6-11.26-11.13-16.84-16.63c-5.17,4.33-5.13,4.3-0.7,8.73
		c39.48,39.45,78.92,78.93,118.46,118.32c2.66,2.65,2.52,4.2-0.12,6.82c-26.82,26.64-53.55,53.37-80.16,80.22
		c-3.16,3.19-5.04,3.53-8.35,0.12c-13-13.38-26.35-26.42-39.46-39.68c-5.13-5.18-9.99-10.63-15.64-16.67
		C387.16,398.07,385.97,399.39,384.45,401.06z M308.9,329.97c-1.81,1.65-2.7,2.4-3.51,3.22c-39.69,39.66-79.4,79.28-118.99,119.05
		c-3.11,3.12-4.79,3.12-7.9-0.02c-26.71-26.97-53.57-53.8-80.51-80.54c-2.76-2.74-2.52-4.39,0.06-6.85
		c5.89-5.64,11.6-11.49,17.37-17.25c11.78-11.77,23.58-23.53,35.33-35.34c2.92-2.93,2.69-6.31-0.56-6.8
		c-1.45-0.22-3.51,1.35-4.78,2.61c-18.91,18.77-37.66,37.7-56.65,56.4c-3.31,3.26-2.64,5.02,0.32,7.95
		c29.89,29.67,59.7,59.43,89.33,89.34c3.47,3.51,5.3,2.83,8.36-0.25c38.17-38.33,76.46-76.55,114.71-114.81
		c3.84-3.84,7.59-7.78,11.57-11.88C311.46,332.95,310.31,331.6,308.9,329.97z M322.76,272.97c0.93-0.79,1.98-1.56,2.89-2.47
		c39.69-39.66,79.4-79.3,118.96-119.09c3.2-3.22,4.89-2.91,7.92,0.15c26.38,26.59,52.87,53.08,79.5,79.42
		c3.39,3.35,3.64,5.27,0.14,8.7c-17.37,17.02-34.49,34.28-51.7,51.46c-3.9,3.9-3.83,4.35,1.6,7.72c1.37-1.25,2.88-2.52,4.27-3.91
		c18.49-18.49,36.88-37.07,55.51-55.42c3.27-3.22,3.44-5.03,0.09-8.31c-17.49-17.13-34.74-34.49-52.05-51.8
		c-12.48-12.48-25.03-24.89-37.33-37.55c-3.09-3.18-5.3-3.38-7.98,0.04c-0.71,0.91-1.63,1.66-2.46,2.49
		c-40.14,40.15-80.28,80.31-120.43,120.46C317.49,269.06,317.5,269.25,322.76,272.97z M220.58,361.44c-1.62-1.7-2.83-3.04-4.11-4.32
		c-39.11-39.11-78.19-78.25-117.43-117.23c-3.59-3.57-3.52-5.49,0.07-9.05c26.87-26.58,53.53-53.37,80.17-80.18
		c2.55-2.56,4.2-2.24,6.53,0.19c6.57,6.84,13.34,13.51,20.05,20.22c10.95,10.95,21.96,21.84,32.85,32.86
		c2.31,2.34,4.6,3.33,6.16-0.1c0.56-1.22-0.65-3.94-1.87-5.17c-18.76-18.93-37.73-37.64-56.44-56.61c-3.27-3.31-5.03-3.17-8.28,0.1
		c-29.55,29.79-59.23,59.46-89.07,88.98c-3.57,3.53-3.15,5.38,0.17,8.68c35.1,34.87,70.06,69.88,105.02,104.89
		c7.05,7.06,13.95,14.27,21.09,21.59C217.42,364.43,218.73,363.2,220.58,361.44z M105.94,208.85c-2.88-0.93-5.28-1.52-7.53-2.48
		c-3.81-1.62-7.77-3.08-11.23-5.3c-16.95-10.9-15.84-32.16,2.16-41.32c6.7-3.41,13.63-6.42,18.17-12.76
		c2.71-3.78,4.54-8.26,7.62-11.66c3.11-3.43,6.84-7.14,11.03-8.59c11.71-4.03,22.58,0.7,29.27,11.96c2.6,4.38,4.46,9.19,6.66,13.8
		c5.01-2.64,5.76-3.72,4.1-8.78c-1.8-5.5-3.7-11.07-6.4-16.16c-4.01-7.56-10.21-13.11-18.38-16.1c-3.7-1.35-6.88-1.93-9.63,2.72
		c-3.65,6.17-13.73,7.17-18.87,1.83c-3.78-3.93-6.77-2.67-9.81-0.22c-2.53,2.03-5.42,4.5-6.45,7.38c-3.7,10.27-11.37,16.42-20.12,22
		c-3.67,2.34-6.7,5.81-9.69,9.07c-2.04,2.23-1.69,4.5,0.58,6.98c7.51,8.2,6.03,18.48-3.5,23.94c-2.8,1.6-3.28,3.37-1.8,5.55
		c2.95,4.33,5.72,9.02,9.58,12.43c7.02,6.22,16.04,8.45,25.04,10.49C101.09,214.62,103.75,213.23,105.94,208.85z M525.12,209.22
		c1.9,3.29,3.92,5.62,7.71,4.57c5.92-1.64,11.98-2.98,17.63-5.31c8.02-3.3,14.65-8.5,18.21-16.86c1.28-3.01,1.18-4.84-2.2-6.79
		c-8.97-5.18-10.42-15.9-3.19-23.31c2.79-2.86,2.78-5.5,0.49-7.78c-3.95-3.94-8.15-7.79-12.79-10.85
		c-7.16-4.73-12.69-10.39-16.13-18.47c-1.52-3.58-4.97-6.5-7.99-9.24c-2.68-2.43-5.36-2.59-8.51,0.53
		c-5.64,5.57-15.39,4.81-19.19-1.62c-2.46-4.16-5.36-4-8.71-2.88c-2.95,0.99-5.83,2.49-8.39,4.27c-10,6.99-14.6,17.31-17.6,28.71
		c-1.21,4.6,0.65,6.81,4.74,8.65c0.81-2.2,1.5-4.22,2.28-6.2c2.74-6.93,6.58-13.02,12.85-17.39c8.79-6.13,25.91-5.97,32.42,7.25
		c5.28,10.74,13.37,18.22,24.38,23.24c4.54,2.07,8.95,6.14,11.54,10.43c7.19,11.9,1.87,25.83-11.93,32.74
		C535.91,205.36,530.69,207.01,525.12,209.22z M515.4,201.26c3.1,1.9,5.65,4.79,7.6,4.42c8.69-1.61,17.11-4.37,23.62-10.93
		c9.42-9.48,8-24.34-3.87-30.37c-12.51-6.35-22.7-14.02-29.35-27.04c-5.33-10.43-19.24-11.69-28.63-4.37
		c-7.07,5.51-10.25,13.34-12.56,21.62c-0.25,0.91,0.17,2.32,0.78,3.11c2.21,2.86,4.62,5.56,7,8.37c1.71-1.42,2.37-1.89,2.94-2.46
		c6.3-6.33,12.24-6.78,19.47-1.42c2,1.49,3.82,3.34,6.01,4.44c1.99,1,4.37,1.21,6.58,1.77c0.25-0.45,0.5-0.9,0.75-1.35
		c-2.32-3.55-4.63-7.1-6.95-10.65c0.45-0.3,0.9-0.59,1.35-0.89c6.47,4.25,9.71,11.02,12.27,18.02
		C526.09,183.58,524.98,192.9,515.4,201.26z M152.1,164.59c1.25-1.45,3.76-4.28,6.16-7.21c0.47-0.57,0.87-1.6,0.69-2.24
		c-2.92-10.07-6.58-19.82-16.88-24.7c-9.72-4.61-20.91-1.39-25.62,8.42c-5.46,11.37-13.73,18.92-25.14,23.54
		c-0.92,0.37-1.78,0.91-2.64,1.41c-12.51,7.26-14.28,23.05-2.86,32.02c5.19,4.08,11.96,6.17,18.08,9.03
		c4.86,2.27,8.25,0.46,10.61-4.52c-7.29-6.33-9.31-14.49-6.89-23.77c2.74-10.5,9.27-19.79,15.04-20.58
		c-2.73,4.02-5.12,7.55-7.68,11.33c5.06,2.2,7.72-0.99,10.92-2.84c3.8-2.19,7.83-5.45,11.79-5.49
		C141.9,158.95,146.16,162.12,152.1,164.59z M379.67,202.65c-1.18-1.39-1.95-2.45-2.86-3.36c-7.04-7.09-14.09-14.17-21.16-21.24
		c-24.15-24.14-48.29-48.29-72.52-72.36c-2.27-2.26-3.12-3.81-0.41-6.44c9.91-9.64,19.71-19.39,29.35-29.29
		c2.61-2.68,4.33-2.7,6.86-0.03c5.6,5.93,11.44,11.63,17.19,17.43c4.87,4.91,9.75,9.82,15.27,15.38
		c-11.45,11.1-22.41,21.73-33.25,32.24c3.74,5.76,4.03,5.86,7.99,1.93c10.52-10.44,20.91-21.01,31.52-31.36
		c2.59-2.52,2.34-4.03-0.1-6.43c-12.92-12.74-25.77-25.56-38.47-38.54c-2.79-2.86-4.54-2.77-7.25,0.03
		c-8.7,8.96-17.54,17.77-26.49,26.48c-4.99,4.85-10.29,9.37-14.85,13.5c35.84,35.93,70.46,70.63,105.55,105.81
		C376.98,205.42,378.23,204.13,379.67,202.65z M351.4,500.91c-11.86,11.91-22.73,22.91-33.77,33.74c-0.75,0.74-3.35,0.87-4.04,0.2
		c-11.21-10.89-22.24-21.95-33.63-33.29c1.64-1.76,2.93-3.24,4.31-4.62c8.47-8.48,16.98-16.94,25.45-25.43
		c1.71-1.72,4.07-3.24,1.1-6.07c-3.01-2.87-4.42-0.18-6.07,1.44c-5.01,4.88-9.85,9.93-14.89,14.78
		c-6.57,6.32-13.26,12.51-19.89,18.76c1.35,1.52,1.58,1.98,1.92,2.33c13.74,13.81,27.52,27.57,41.2,41.43
		c2.28,2.31,3.64,1.15,5.33-0.55c6.69-6.73,13.4-13.44,20.15-20.11c7.31-7.23,14.68-14.4,21.4-20.98
		c-35.21-35.32-69.82-70.05-104.83-105.17c-1.03,0.97-2.33,2.19-4.1,3.85C284.74,434.7,317.9,467.63,351.4,500.91z M347.13,501.75
		c-10.58-10.57-20.17-20.24-29.97-29.69c-0.63-0.61-3.41-0.01-4.36,0.9c-6.27,5.97-12.2,12.29-18.47,18.26
		c-3.34,3.18-7.15,5.88-11.65,9.54c11.33,10.96,20.96,20.38,30.77,29.61c0.76,0.71,3.31,0.76,4.04,0.07
		C327.27,521.18,336.88,511.74,347.13,501.75z M315.41,133.85c10.18-10.28,19.81-19.89,29.21-29.72c0.66-0.69,0.21-3.53-0.68-4.44
		c-8.57-8.84-17.29-17.53-26.16-26.07c-0.82-0.79-3.62-0.9-4.38-0.16c-9.1,8.78-18.04,17.73-26.82,26.82
		c-0.73,0.75-0.61,3.53,0.18,4.36C295.95,114.24,305.34,123.65,315.41,133.85z M315.69,203.67c-10.37,10.49-19.87,20-29.16,29.72
		c-0.72,0.75-0.54,3.55,0.26,4.39c8.68,8.96,17.51,17.77,26.49,26.42c0.79,0.76,3.59,0.74,4.38-0.03
		c9.1-8.77,18.04-17.71,26.84-26.78c0.7-0.72,0.69-3.3-0.01-4.05C335.24,223.58,325.79,214.01,315.69,203.67z M555.59,110.36
		c0.2-2.48,0.3-3.64,0.39-4.8c0.61-8.07-2.96-12.96-10.8-14.81c-9.37-2.21-18.16,3.59-21.23,13.53c-1.19,3.85-0.56,5.5,3.14,7.66
		c3.95,2.31,8.17,5.89,9.89,9.93c3.97,9.29,10.63,15.31,18.9,20.41c3.87,2.39,8.43,5.37,10.13,9.21c2.82,6.38,6.27,5.02,10.79,3.24
		c6.93-2.73,9.68-6.5,9.19-13.04c-0.59-7.85-4.08-12.14-11.36-13.67c-2.58-0.54-5.25-0.78-7.9-0.94c-6.44-0.39-9.76-3.17-10.72-9.57
		C555.6,114.71,555.67,111.86,555.59,110.36z M61.94,157.15c2.67-8.24,8.93-12.61,15.6-16.56c7.06-4.18,12.15-9.81,15.76-17.44
		c2.13-4.49,6.44-8.42,10.67-11.28c3.21-2.17,4.72-3.63,3.06-7.28c-0.68-1.5-0.95-3.2-1.65-4.69c-3.4-7.16-12.48-11.14-20.28-8.99
		c-7.93,2.19-10.6,6.68-9.99,16.42c0.2,3.15,0.33,6.35-0.02,9.48c-0.75,6.83-4.3,9.87-11.21,10.26c-2.32,0.13-4.65,0.35-6.93,0.8
		c-7.88,1.54-11.27,5.52-11.91,13.7c-0.54,6.9,2.01,10.47,9.55,13.24C56.74,155.61,58.98,156.22,61.94,157.15z M410.68,374.57
		c13.19,13.16,25.62,25.56,38.32,38.22c1.08-0.98,2.48-2.13,3.75-3.4c12-12.01,23.96-24.05,35.96-36.06
		c5.13-5.13,5.14-5.09-0.05-10.28c-24.49-24.47-49.01-48.91-73.44-73.44c-8.55-8.59-16.89-17.4-25.16-25.94
		c-5.86,3.95-6.01,4.44-2.13,8.32c30.82,30.85,61.64,61.7,92.56,92.44c2.84,2.82,3.26,4.57,0.12,7.58
		c-8.9,8.52-17.43,17.41-26.15,26.11c-1.94,1.93-4.08,3.67-7.1,6.36c-11.02-11.34-21.65-22.29-32.91-33.88
		C413.08,372.04,411.86,373.33,410.68,374.57z M286.39,308.68c-2.28-4.46-4.46-4.2-7.86-0.78c-30.87,31.07-61.93,61.96-92.83,93
		c-2.5,2.51-4.02,2.47-6.45-0.02c-9.66-9.89-19.44-19.67-29.34-29.32c-2.51-2.45-2.59-4-0.03-6.46
		c7.44-7.16,14.66-14.55,21.95-21.86c2.66-2.67,5.29-5.39,7.85-8.01c-1.45-2.14-2.52-3.71-3.7-5.44
		c-12.86,12.8-24.64,24.56-36.48,36.24c-2.62,2.59-0.66,4,1.03,5.68c9.45,9.39,18.93,18.75,28.3,28.23
		c4.41,4.47,8.57,9.18,12.64,13.56C216.98,378.01,251.56,343.47,286.39,308.68z M454.92,272.67c12.59-12.63,25.16-25.24,37.11-37.23
		c-14.41-14.66-29.06-29.57-43.53-44.29c-34.57,34.52-69.16,69.08-103.8,103.67c2.98,4.88,3.64,5.02,7.41,1.25
		c25.54-25.56,51.09-51.1,76.57-76.71c6.43-6.46,12.64-13.15,18.74-19.52c1.48,0.74,2.01,0.87,2.34,1.19
		c10.64,10.55,21.22,21.17,31.93,31.66c2.42,2.37,1.4,3.87-0.48,5.74c-8.88,8.79-17.59,17.75-26.58,26.42
		C451.58,267.8,450.63,270.07,454.92,272.67z M242.15,339.12c4.72-3.18,4.8-3.55,0.92-7.43c-28.01-28.02-56.04-56.03-84.05-84.05
		c-3.96-3.96-7.89-7.96-11.65-11.75c12.09-12.1,23.69-23.7,36.04-36.06c10.51,10.93,21.19,22.04,31.75,33.01
		c5.84-4.09,5.87-4.2,1.92-8.22c-3.97-4.03-8.06-7.95-11.98-12.04c-7.22-7.53-14.36-15.15-21.07-22.24
		c-16.03,15.87-30.95,30.64-45.48,45.03C173.03,269.9,207.57,304.49,242.15,339.12z M83.66,491.83
		c-15.2-6.78-34.61,0.37-40.79,13.82c-7.99,17.38-3.13,38.31,10.52,43.52c3.82-4.2,7.73-8.26,11.29-12.59
		c0.88-1.07,0.84-3.03,0.94-4.59c0.35-5.61-0.15-11.39,1.02-16.82C68.74,505.33,75.19,498.1,83.66,491.83z M547.57,491.75
		c2.46,2.2,4.65,3.98,6.63,5.96c6.83,6.84,11.71,15.03,11.28,24.75c-0.39,8.71,0.88,15.6,7.69,21.92c5.48,5.09,6.02,6.07,11.24,0.29
		c1.87-2.07,3.68-4.45,4.65-7.02c4.62-12.23,3.98-24.31-2.99-35.44C578.7,490.49,559.12,485.26,547.57,491.75z M315.41,399.93
		c10.25-10.38,19.83-20.05,29.36-29.77c0.52-0.53,0.96-1.47,0.91-2.18c-0.22-3.01-9.28-9.46-12.4-8.83
		c-11.92,2.4-23.81,2.44-35.72-0.05c-3.1-0.65-12.1,6-12.2,9.05c-0.03,0.83,0.63,1.85,1.26,2.5
		C295.92,380.16,305.26,389.63,315.41,399.93z M532.49,218.4c3.8,2.56,6.84,5.99,10.4,6.67c5.44,1.04,11.3,0.66,16.88,0.02
		c9.54-1.1,18.53-4.13,25.87-10.67c5.98-5.34,8.95-11.94,6.99-20.09c-1.13-4.72-4.25-7.51-9.08-7.97
		c-6.74-0.64-9.85,1.17-11.94,6.34c-3.08,7.62-8.64,13.15-15.83,16.61C548.82,212.64,541.38,214.98,532.49,218.4z M97.81,217.58
		c-5.61-1.73-10.88-3-15.88-4.97c-9.36-3.67-17.86-8.98-21.78-18.62c-2.04-5.01-4.33-7.23-9.73-7.52c-6.53-0.35-10.9,2.3-12.3,8.8
		c-1.74,8.12,2.5,16.69,11.12,22.17c10.82,6.89,22.82,8.45,35.4,8.26C90.87,225.62,94.17,222.24,97.81,217.58z M222.27,296.49
		c17.38,10.25,34.8,11.29,52.53,9.74c4.53-0.4,5.34-4.58,2.03-7.91c-8.33-8.38-16.67-16.74-25.21-24.9
		c-0.95-0.9-3.95-1.19-4.78-0.43C238.77,280.4,230.96,288.09,222.27,296.49z M408.63,297.05c-8.82-8.71-16.76-16.47-24.61-24.32
		c-2.48-2.48-3.81-0.39-5.29,1.09c-7.91,7.86-15.84,15.7-23.63,23.68c-1.38,1.42-2.16,3.43-3.21,5.16c2.17,1.31,4.25,3.56,6.52,3.77
		c12.36,1.15,24.64,0.31,36.53-3.52C399.27,301.52,403.34,299.34,408.63,297.05z M418.08,234.13c8.49,8.66,16.31,16.64,24.42,24.92
		c10.81-15.43,10.98-32.89,9.48-50.56c-0.17-2.05-2.36-5.48-5.71-2.19C436.69,215.7,427.17,225.15,418.08,234.13z M189.41,260.25
		c7.78-8.02,15.14-15.45,22.19-23.14c0.66-0.72-0.02-3.7-1.01-4.73c-7.86-8.15-15.89-16.12-24-24.02c-1.37-1.33-3.36-2.03-5.06-3.03
		c-1.02,2.13-2.83,4.23-2.92,6.41c-0.3,6.8-0.37,13.68,0.25,20.45C179.75,241.88,182.63,251.03,189.41,260.25z M171.68,145.72
		c1.35-3.47,3.52-6.26,3.21-8.74c-1.12-9.03-2.3-18.19-4.91-26.86c-2.6-8.62-7.08-16.72-15.99-20.73
		c-5.95-2.68-12.15-2.41-17.64,1.29c-5.04,3.4-3.22,8.64-2.34,13.28c0.25,1.29,2,3.03,3.3,3.27c10.16,1.82,17.95,7.35,23.24,15.8
		C164.65,129.55,167.43,136.88,171.68,145.72z M459.27,145.12c1.52-1.02,1.73-1.08,1.77-1.2c0.83-2.51,1.54-5.05,2.47-7.52
		c5.46-14.58,13.85-26.1,30.43-29.07c0.9-0.16,2.01-0.59,2.51-1.28c4.31-5.85,0.9-15.44-6.12-17.44
		c-9.54-2.72-17.99,0.97-24.34,11.03c-7.33,11.61-9.67,24.66-9.94,38.1C456,140.07,458.05,142.45,459.27,145.12z M188.9,272.69
		c32.54-32.57,64.82-64.88,97.16-97.24c-3.18-4.53-3.49-4.6-7.39-0.7c-30.48,30.49-60.96,60.98-91.42,91.5
		c-0.77,0.77-1.3,1.78-2.28,3.15C186.42,270.61,187.68,271.67,188.9,272.69z M379.16,336.22c-32.99-33.02-65.24-65.29-97.82-97.91
		c-1.02,1.16-2.26,2.56-3.2,3.62c32.65,32.66,64.92,64.93,97.57,97.58C376.8,338.48,378.09,337.24,379.16,336.22z M215.83,299.02
		c1.49-1.42,2.85-2.64,4.13-3.93c17.99-17.98,35.98-35.97,53.96-53.95c11.99-11.99,23.93-24.04,36.03-35.91
		c2.68-2.63,3.05-4.95-0.33-6.48c-1.14-0.52-3.8,1.05-5.09,2.34c-30.08,29.91-60.08,59.9-90.08,89.89
		C210.55,294.87,210.6,295.17,215.83,299.02z M352.84,361.88c-32.44-32.46-64.82-64.87-97.25-97.31c-4.62,3.58-4.62,3.58-0.37,7.83
		c29.86,29.87,59.78,59.68,89.51,89.68C348.27,365.63,350.55,365.88,352.84,361.88z M414.76,304.48
		c-10.86,10.98-21.59,21.89-32.4,32.74c-20.46,20.52-40.95,41.03-61.5,61.46c-2.19,2.17-3.2,4.27-0.16,5.85
		c1.21,0.63,4.05-0.26,5.21-1.41c30.37-30.17,60.56-60.52,90.94-90.68C420.54,308.76,419.1,306.98,414.76,304.48z M442.05,331.11
		c-32.57,32.59-64.86,64.89-97.56,97.61c1,0.96,2.27,2.18,3.89,3.72c2.21-2.08,4.17-3.82,6.02-5.67
		c29.32-29.31,58.57-58.69,88.03-87.86C445.92,335.47,446.03,333.41,442.05,331.11z M404.86,427.98c-3.16-3.2-7.14-7.24-11.41-11.57
		c-8.59,12.81-14.43,26.58-16.88,41.74c-0.14,0.88,0.13,2.14,0.71,2.77c3.48,3.87,7.11,7.62,10.44,11.14
		C393.62,456.88,399.23,442.43,404.86,427.98z M243.36,472.27c3.05-3.28,6.31-6.4,9.05-9.91c1.16-1.49,1.98-3.94,1.69-5.74
		c-2.21-13.47-7.45-25.81-14.63-37.36c-0.66-1.06-1.61-1.95-2.49-3c-4.32,4.17-8.35,8.05-11.17,10.78
		C231.81,442.5,237.41,456.93,243.36,472.27z M197.6,385.6c3.58-4.01,6.48-7.68,9.82-10.86c2.6-2.48,1.89-3.93-0.42-5.93
		c-9.97-8.62-21.37-14.5-34.05-17.9c-1.39-0.37-3.48-0.27-4.53,0.54c-3.75,2.89-7.2,6.17-10.76,9.31c0.25,0.53,0.5,1.06,0.75,1.59
		C173.16,366.32,186.27,373.06,197.6,385.6z M433.31,385.72c11.23-12.71,24.65-19.22,40.82-23.97c-4.55-4.11-7.79-7.23-11.26-10.05
		c-0.97-0.79-2.78-1.27-3.97-0.98c-13.49,3.34-25.48,9.64-35.72,19.05c-0.75,0.69-0.96,3.18-0.34,3.97
		C426.02,377.76,429.56,381.51,433.31,385.72z M513.18,198.04c8.02-5.32,10.61-17.66,5.58-25.17c-0.61-0.91-2.42-1.05-3.69-1.49
		c-3.64-1.26-7.42-2.22-10.9-3.82c-2.51-1.16-4.48-3.43-6.95-4.73c-4.34-2.31-9.09-1.11-11.78,2.99c-0.67,1.02-0.79,3.44-0.08,4.17
		C494.46,179.39,503.75,188.6,513.18,198.04z M117.53,198.03c9.52-9.44,18.86-18.61,28.01-27.96c0.74-0.75,0.72-3.14,0.09-4.19
		c-2.36-3.9-7.1-5.26-11.33-3.3c-2.23,1.03-4.32,2.49-6.21,4.07c-3.68,3.07-7.45,5.48-12.59,4.75c-1.05-0.15-2.73,0.49-3.31,1.33
		C107.32,179.77,109.88,192.4,117.53,198.03z M372.62,457.39c0.94-2.42,1.28-3.31,1.63-4.19c4.36-11.05,8.26-22.33,13.25-33.09
		c3.65-7.88,4.22-7.5-2.29-13.46c-2.17-1.99-3.46-1.86-5.1,0.52c-7.93,11.47-13.63,23.89-16.2,37.64c-0.23,1.25,0.25,2.99,1.04,4
		C367.05,451.52,369.51,453.97,372.62,457.39z M248.6,404.42c-1.82,1.68-2.92,2.94-4.26,3.87c-4.44,3.08-4.49,6.24-1.52,10.75
		c6.9,10.47,11.46,22.01,13.92,34.35c0.19,0.97,0.91,1.85,1.44,2.89c11.61-10.88,9.87-6.71,6.71-20.21
		c-0.15-0.65-0.27-1.3-0.48-1.93C260.83,423.58,255.97,413.72,248.6,404.42z M181.12,399.02c5.2-4.43,9.3-7.94,14.51-12.38
		c-7.16-5.18-13.07-10.31-19.75-14.04c-5.7-3.18-12.24-4.91-18.54-6.88c-1.32-0.41-3.27,0.81-4.74,1.62
		c-0.28,0.15-0.02,2.27,0.59,2.9C162.59,380.04,172.09,389.74,181.12,399.02z M435.46,388.38c3.46,2.82,6.96,5.14,9.78,8.11
		c2.51,2.65,4.09,2.39,6.44-0.01c8.24-8.42,16.66-16.67,24.91-25.08c0.99-1.01,1.34-2.64,1.99-3.99c-1.74-0.61-3.67-2.05-5.19-1.7
		C459.16,368.98,446.78,375.61,435.46,388.38z M561.14,532.18c2.05-5.02,2.17-11.97-0.48-18.64c-4.17-10.51-10.76-18.86-22.67-21.01
		c-3.16-0.57-6.83-0.86-9.53,2.67c10.91,5.83,17.21,14.03,16.22,26.63c-0.07,0.91,0.68,2.36,1.46,2.78
		C551.07,527.25,556.12,529.68,561.14,532.18z M102.26,494.79c-5.93-4.17-13.79-2.86-21.06,3.12c-9.16,7.54-16.19,22.76-11.3,34.15
		c4.45-2.19,8.82-4.53,13.35-6.52c2.55-1.12,3.37-2.59,3.1-5.36c-0.68-6.85,1.62-12.87,6.38-17.72
		C95.48,499.68,98.85,497.5,102.26,494.79z M167.46,219.68c-5.45,5.64-10.34,10.7-15.92,16.47c9.14,8.95,18.41,18.15,27.88,27.15
		c1.09,1.04,3.63,1.78,4.83,1.22c2.55-1.19,1.45-3.24,0.42-5.41c-5.12-10.75-10.03-21.6-14.92-32.46
		C168.83,224.62,168.33,222.4,167.46,219.68z M464.59,220.79c-6.49,13.53-12.89,26.73-19.08,40.04c-0.41,0.88,0.37,2.96,1.25,3.62
		c0.8,0.61,3,0.6,3.69-0.06c9.8-9.39,19.44-18.94,28.84-28.18C473.85,230.51,468.98,225.4,464.59,220.79z M136.92,542.21
		c-8.45-0.02-13.36,3.54-14.12,9.52c-0.73,5.78,1.77,9.86,7.94,12.95c5.71,2.86,8.64,2.44,13.28-2.45c3.56-3.75,7.74-7.99,5.51-13.5
		C147.28,543.16,141.29,542.74,136.92,542.21z M508.29,556.27c0.03-9.35-4.46-13.75-11.93-13.98c-5.79-0.18-12.07,0.45-14.71,6.21
		c-2.69,5.89,2.05,10.22,5.81,14.22c3.23,3.44,6.95,4.92,11.6,2.58C504.01,562.8,508.25,559.85,508.29,556.27z M508.17,277.52
		c-3.5,3.51-6.69,6.35-9.38,9.6c-1.06,1.28-1.3,3.47-1.41,5.28c-0.34,6.04-0.48,12.1-0.62,18.15c-0.03,1.52-0.29,3.41,0.46,4.51
		c2.22,3.27,4.9,6.23,7.57,9.53C512.1,314.56,513.5,291.78,508.17,277.52z M123.66,277.7c-6.18,7.15-5.1,39.97,2.84,46.18
		c1.51-1.97,2.84-4.4,4.81-6.11c2.97-2.58,3.49-5.06,2.71-9.04c-1-5.06-0.36-10.45-0.49-15.69c-0.04-1.74,0.34-3.95-0.56-5.11
		C130.15,284.33,126.83,281.11,123.66,277.7z M143.58,567.84c3.8,0.34,6.35,0.79,8.9,0.77c14.67-0.09,18.13-5,12.96-18.9
		c-3.13-8.42-8.99-14.19-19.06-17.18C156.62,545.5,155.6,556.72,143.58,567.84z M487.4,567.48c-12.3-10.59-12.94-21.92-3.56-34.24
		c-15.27,2.94-22.02,20.31-19.61,31.09c0.23,1.02,1.11,2.57,1.88,2.7C472.88,568.18,479.69,569.77,487.4,567.48z M271.12,310.38
		c-1.13-0.3-1.45-0.46-1.77-0.46c-16.33,0.38-32.26-1.1-46.88-9.38c-0.82-0.46-2.32,0.27-3.5,0.45c0.36,1,0.47,2.19,1.1,2.97
		c8.34,10.23,20.07,13.32,32.31,15.98C261.57,321.93,266.08,316.79,271.12,310.38z M360.58,310.43c-0.33,0.49-0.65,0.98-0.98,1.47
		c4.24,2.82,8.48,8.03,12.71,8.01c14.2-0.06,27.7-3.69,37.71-15.03c0.95-1.08,1.31-2.68,1.94-4.03c-1.5,0.09-3.09-0.12-4.48,0.31
		c-8.07,2.44-15.96,5.71-24.18,7.38C375.9,310.04,368.16,309.86,360.58,310.43z M171.76,565.66c4.06-1.7,8.65-3.47,13.06-5.6
		c1.03-0.5,2.08-2.24,2.07-3.39c-0.13-8.84-13.01-17.96-20.71-15.63C167.98,548.99,169.77,556.89,171.76,565.66z M464.81,540.89
		c-8.02-1.84-19.78,6.36-20.55,15.11c-0.11,1.25,0.52,3.33,1.41,3.76c4.64,2.23,9.48,4.06,13.54,5.73
		C461.19,556.81,462.96,549.02,464.81,540.89z M332.95,355.32c-5.14-7.29-5.61-7.49-13.54-7.24c-2.99,0.09-5.99,0.07-8.98-0.09
		c-6.11-0.32-9.34,1.67-12.03,7.61C306.57,358.57,325.74,358.49,332.95,355.32z M51.27,183.38c5.83,1.16,10.85,0.5,14.81-3.73
		c3.4-3.63,3.79-8.13,1.91-12.51c-2.02-4.69-6.11-6.82-10.65-7.56c-0.24,4.45,0.14,8.65-0.84,12.51
		C55.53,175.91,53.18,179.39,51.27,183.38z M580,183.38c-4.83-7.41-8.56-14.98-5.13-24.16c-9.91,2.48-13.93,7.69-12.57,15.25
		C563.51,181.22,569.84,184.62,580,183.38z M457.4,347.56c0.4-0.72,0.8-1.45,1.2-2.17c-2.4-1.78-5.03-3.32-7.12-5.4
		c-2.4-2.38-4-1.97-6.17,0.26c-8.37,8.56-16.88,16.98-25.31,25.48c-0.66,0.67-1.06,1.61-1.58,2.42
		C430.05,358.45,443.13,351.93,457.4,347.56z M172.31,345.49c0.46,0.73,0.92,1.46,1.37,2.19c14.16,4.13,27.03,10.71,38.41,20.3
		c-8.89-10.14-18.26-19.53-27.77-28.79c-0.65-0.64-2.62-0.81-3.39-0.3C177.94,340.9,175.17,343.26,172.31,345.49z M500.79,100.68
		c-0.7,4.78-2.15,10.57,2.99,13.71c2.69,1.64,7.6,1.54,10.67,0.24c4.67-1.97,5.78-6.95,6.18-10.96
		C513.77,102.64,507.56,101.7,500.79,100.68z M110.62,103.61c-0.26,4.32,2.46,10.04,6.44,11.58c3.84,1.49,7.88,1.79,11.2-1.41
		c3.02-2.91,3.4-8.84,1.46-12.99C123.23,101.75,117,102.67,110.62,103.61z M271.12,444.41c2.74-2.99,5.05-5.34,7.1-7.89
		c0.55-0.69,0.81-2.5,0.36-2.98c-5.49-5.75-11.13-11.35-16.74-16.98c-0.18,0.21-0.36,0.42-0.53,0.63
		C264.43,425.81,267.54,434.44,271.12,444.41z M358.85,444.6c0.48-0.46,0.95-0.92,1.43-1.38c3.14-8.72,6.27-17.45,9.41-26.17
		c-0.3-0.27-0.6-0.54-0.9-0.8c-5.36,5.56-10.78,11.07-16.01,16.76c-0.61,0.67-0.67,2.62-0.14,3.42
		C354.51,439.28,356.75,441.9,358.85,444.6z M91.52,593.45c3.86-7.09,3.28-10.87-2.02-13.49c-5.23-2.59-11.47-0.56-13.39,3.91
		C81.31,587.1,86.43,590.28,91.52,593.45z M539.24,593.61c5.51-3.42,10.72-6.66,15.93-9.89c-3.77-4.9-9.36-6.28-14.27-3.47
		C536.46,582.79,535.99,586.13,539.24,593.61z M237.03,319.73c-0.39,0.44-0.78,0.88-1.17,1.32c3.89,3.48,7.74,7.01,11.73,10.39
		c0.56,0.47,2.13,0.59,2.62,0.17c2.49-2.18,4.78-4.59,7.72-7.5C250.09,322.47,243.56,321.1,237.03,319.73z M394.73,320.81
		c-0.27-0.36-0.54-0.71-0.81-1.07c-6.63,1.4-13.26,2.8-21.53,4.55c3.29,2.91,5.38,5.05,7.79,6.73c0.85,0.59,2.95,0.56,3.71-0.09
		C387.65,327.72,391.14,324.21,394.73,320.81z M146.22,302.21c-2.93-3.39-5.57-6.44-8.36-9.67c-3.18,5.82-2.86,12.04,0.32,17.09
		C140.89,307.13,143.64,304.6,146.22,302.21z M484.72,301.11c2.9,3.48,5.3,6.37,7.84,9.41c3.5-6.69,3.65-12.81,0.49-17.75
		C490.1,295.72,487.23,298.59,484.72,301.11z M558.06,430.81c1.35,5.76,6.72,8.48,11.28,5.92c0.87-0.49,1.99-1.84,1.84-2.55
		c-0.22-1.05-1.38-2.55-2.31-2.68C565.35,431.02,561.75,431.01,558.06,430.81z M73.11,430.61c-3.58,0.27-6.67,0.51-9.75,0.74
		c-0.33,0.02-0.76-0.09-0.97,0.08c-0.96,0.78-2.46,1.55-2.59,2.49c-0.12,0.88,1.01,2.39,1.97,2.88
		C66.53,439.23,71.51,436.64,73.11,430.61z M82.01,454.01c-5.53-5.68-14.36-7.22-17.84-3.18C69.6,454.54,75.45,454.48,82.01,454.01z
		 M567.2,450.42c-4.94-3.43-13.4-1.62-18.15,3.67C555.57,454.33,561.47,454.69,567.2,450.42z M455.82,229.96
		c5.91-8.96,5.72-15.17,0-16.39C455.82,218.69,455.82,223.79,455.82,229.96z M175.01,212.81c-5.33,3.39-5.09,10.31,0,16.39
		C175.01,223.82,175.01,218.67,175.01,212.81z M321.82,344.57c-5.23-8.22-7.59-8.18-12.27,0
		C313.59,344.57,317.36,344.57,321.82,344.57z M71.54,112.61c-3.18,3.87-5.88,7.16-8.87,10.79
		C69.69,123.63,72.54,120.18,71.54,112.61z M559.66,112.94c-1.48,7.24,2.22,11.59,8.25,9.96
		C565.23,119.67,562.62,116.52,559.66,112.94z M545.62,229.06c3.51,4.28,6.74,1.56,10.05,0
		C552.32,229.06,548.97,229.06,545.62,229.06z M86.48,229.23c-4.42,0-7.72,0-11.03,0C78.81,230.35,82.12,233.66,86.48,229.23z"/>
	<path d="M389.35,667.03c13.81,4.21,13.7,20.12,7.85,29.17c-4.34,6.72-10.12,10.88-18.67,10.24c-1.28-0.1-3.38,1.28-3.95,2.51
		c-5.53,11.83-19.83,17.96-32.34,13.29c-3.46-1.29-5.3-1.07-7.76,2.08c-11,14.1-30.58,13.87-41.7,0.01
		c-0.89-1.11-3.41-1.88-4.79-1.48c-11.14,3.22-28.21-2.29-31.76-14.26c-0.32-1.08-2.83-2.39-4.1-2.18
		c-13.56,2.15-26.97-16.09-20.42-31c1.56-3.55,5.5-6.06,8.91-9.64c-6.99-10.03-7.38-22.6-6.09-35.33
		c1.08-10.62,4.94-19.96,14.06-26.49c2.75-1.97,4.93-3.06,7.74,0c0.73,0.8,3.14,0.65,4.5,0.16c3.04-1.09,5.9-2.68,8.49-3.9
		c2,2.38,3.49,5.57,4.86,5.52c3.63-0.14,7.53-1.09,10.73-2.82c3.23-1.74,5.44-3.22,8.63,0.12c3.86,4.04,8.59,5.22,14.46,4.1
		c5.1-0.97,10.68-0.86,15.8,0.08c5.15,0.95,9.28,0.06,12.73-3.47c3.53-3.61,6.27-3.2,10.29-0.33c2.68,1.91,6.85,1.79,10.38,2.43
		c0.38,0.07,1.17-0.71,1.36-1.25c2.38-6.65,6.45-3.46,9.78-1.39c3.02,1.89,5.19,2.97,8.01-0.37c0.66-0.78,4.01-0.21,5.44,0.75
		c9.56,6.45,13.65,16.14,14.7,27.16C397.69,643.32,397.39,655.75,389.35,667.03z M320.66,689.14c2.14-0.58,4.09-0.74,5.63-1.61
		c5.92-3.32,10.47-8.21,11.6-14.9c1.15-6.82,1.74-13.93,1.16-20.8c-1.16-13.71-6.99-25.23-18.71-33.21c-2.21-1.51-4.18-2.4-6.7-0.28
		c-15.25,12.84-22.7,28.95-20.12,48.97c0.92,7.18,3.79,13.8,9.68,18.64c6.45,5.3,14,3.06,15.84-4.79
		c2.22-9.46,1.53-18.87-0.86-28.18c-0.63-2.44-1.74-4.76-2.81-7.62C323.22,647.68,325.03,664.55,320.66,689.14z M297.18,685.04
		c-10.46-17.72-9.75-35.15-0.14-52.47c1.52-2.73,1.24-4.65-0.68-6.68c-4.8-5.07-9.8-9.97-14.39-15.23c-2.62-3-4.67-2.61-7.6-0.56
		c-17.52,12.25-24.62,41.33-14.53,60.18c4.34,8.11,11.15,12.82,20.86,14.82c-0.93-1.61-1.44-2.57-2.02-3.5
		c-8.6-13.8-10.27-28.6-6.15-44.14c0.46-1.75,2.03-3.2,3.09-4.79c0.48,0.32,0.95,0.65,1.43,0.97c-0.35,1.02-0.74,2.04-1.06,3.07
		c-4.53,14.8-3.2,29,4.87,42.28C284.85,685.58,290.34,687.41,297.18,685.04z M350.12,685.37c9.85-2.49,16.99-7.04,21.18-15.55
		c5.43-11.02,5.46-22.5,2.48-34.1c-2.74-10.67-8.28-19.53-17.51-25.9c-2.78-1.92-4.85-1.98-7.24,0.77c-3.38,3.88-7,7.6-10.84,11.02
		c-3.69,3.29-3.74,6.11-1.73,10.75c7.54,17.42,10.63,35.07-1.2,52.19c-0.12,0.17,0.13,0.6,0.22,0.91c6.65,1.64,11.72-0.69,15.7-8.17
		c6.97-13.09,8.47-26.81,3.56-41.01c-0.33-0.95-0.37-1.99-0.61-3.33C364.22,637.34,362.02,664.76,350.12,685.37z M315.16,718.67
		c-0.34,0.17-0.68,0.34-1.01,0.51c-0.73-0.88-1.79-1.66-2.13-2.67c-2.73-8.16-1.82-16.23,1.38-24.26
		c-5.58-1.89-10.19-0.98-14.24,2.67c-6.64,5.99-8.81,17.8-4.65,25.73c3.74,7.12,9.86,10.59,17.78,10.87c9.69,0.35,17-4,21.98-12.11
		c5.07-8.25,3.77-18.69-2.91-24.05c-3.32-2.67-7.16-4.38-11.56-2.74c-4.37,1.63-5.82,5.45-5.88,9.57
		c-0.07,4.43,0.64,8.87,1.01,13.31C314.99,716.57,315.07,717.62,315.16,718.67z M330.92,690.13c7.67,6.02,10.96,13.6,9.15,22.66
		c-0.98,4.93,1.18,6.55,4.96,7.28c6.78,1.3,13.35,0.2,19.25-3.37c10.72-6.49,11.21-22.09,0.89-29.04c-1.6-1.08-4.11-1.54-6.04-1.25
		c-3.39,0.5-6.67,1.8-10.32,2.87c3.86,5.3,10.1,9.38,8.21,17.05c-3.53-4.75-6.31-9.69-10.23-13.44
		C342.51,688.79,336.7,688.77,330.92,690.13z M300.3,689.37c-14.14-0.73-21.84,5.29-25.2,18.01c-3.12-4.36-1.01-7.29,0.59-9.92
		c1.75-2.89,4.14-5.39,6.43-8.28c-2.23-0.62-4.11-1.42-6.05-1.63c-3.16-0.34-6.83-1.35-9.44-0.18c-6.1,2.72-9.54,11.95-7.83,18.42
		c2.84,10.78,17.86,18.25,28.17,13.84c1.18-0.51,2.67-2.4,2.56-3.5C288.43,705.88,291.2,697.12,300.3,689.37z M251.99,663.29
		c0.49-0.04,0.99-0.09,1.48-0.13c-0.23-1.76-0.46-3.53-0.68-5.29c-1.55-12.22,0.36-23.92,5.84-34.92c4.1-8.23,4.05-7.93-2-14.19
		c-3.63-3.76-6.09-3.1-9.39,0.24c-12.08,12.22-14.04,42.01-3.26,55.45c2.25,2.8,5.37,4.91,8.08,7.34c0.34-0.36,0.68-0.72,1.02-1.08
		c-0.73-1.02-1.51-2-2.17-3.05c-8.08-12.8-9.83-26.27-4.01-40.42c0.67-1.63,2.17-2.93,3.29-4.38c0.56,0.27,1.12,0.54,1.68,0.81
		C244.95,637.12,244.85,650.33,251.99,663.29z M380.24,623.49c6.94,6.44,7.37,14.81,7.02,23.36c-0.37,8.95-4.29,16.68-8.87,24.21
		c7.05-3.24,11.35-8.72,13.44-15.86c2.92-9.98,2.87-20.17,0.28-30.12c-1.26-4.86-3.6-9.72-6.54-13.81
		c-5.04-7.02-6.16-6.82-12.68-1.01c-0.75,0.66-1.43,1.42-2.24,1.98c-2.78,1.91-2.75,3.83-0.94,6.66c7.98,12.45,10.4,26.1,8.16,40.65
		c-0.18,1.19-0.02,2.43-0.02,3.65C386.2,650.4,385.91,637.23,380.24,623.49z M248.13,689.55c-0.55-0.14-1.1-0.28-1.65-0.42
		c0.87-2.19,1.35-4.68,2.72-6.49c1.61-2.11,4-3.63,6.27-5.61c-3.34-2-6.16-4.07-9.28-5.46c-3.85-1.72-7.67-1.12-10.23,2.49
		c-4.2,5.93-3.51,12.29-0.57,18.44c2.96,6.19,7.47,10.54,14.87,10.76c3.03,0.09,4.87-0.71,5.33-4.27
		c0.75-5.81,3.57-10.64,8.43-14.16c0.71-0.51,1.11-1.45,1.67-2.21C259.11,678.33,255.47,679.82,248.13,689.55z M366.6,682.19
		c3.05,5.76,6.56,11.1,8.71,16.93c1.2,3.25,2.56,4.12,5.55,4.09c7.31-0.09,11.56-4.49,14.57-10.41c3.11-6.13,3.77-12.45-0.21-18.5
		c-2.32-3.53-7.04-4.66-10.59-2.72c-3,1.64-5.85,3.55-8.8,5.36c8.75,9.33,8.75,9.33,7.33,12.64
		C373.85,679.29,371.54,678.41,366.6,682.19z M292.87,616.81c2.64,3.05,5.29,6.11,7.97,9.2c4.13-3.78,7.99-7.13,11.64-10.71
		c2.46-2.42,4.79-2.6,7.49-0.56c3.93,2.97,7.91,5.86,12.08,8.94c2.14-2.39,4.18-4.65,6.21-6.91
		C326.22,606.3,302.51,607.7,292.87,616.81z M334.89,609.51c2.99,2.16,5.65,6.68,9.23,1.51c0.81-1.16,1.08-3.98,0.31-4.74
		C339.59,601.48,338.18,608.36,334.89,609.51z M297.19,609.24c-4.36-1.23-6.01-7.48-10.7-2.96c-0.74,0.71-0.41,3.56,0.42,4.7
		C290.46,615.95,293.17,612,297.19,609.24z M267.59,603.99c-2.09,1.32-4.18,2.64-6.72,4.26c2.73,2.15,3.76,5.74,7.47,2.65
		C271.38,608.36,270.11,606.52,267.59,603.99z M369.32,608.89c0.07-0.67,0.15-1.33,0.22-2c-2.54-0.5-5.47-2.01-7.5-1.21
		c-2.13,0.83-1.4,3.39,0.64,5.17C366.36,614.08,367.39,610.36,369.32,608.89z"/>
	<path class="st0" d="M356.9,225.92c-41.68-41.71-82.61-82.66-124-124.08c3.06-3.16,6.34-6.62,9.71-9.98
		c23.07-23.07,46.19-46.1,69.22-69.22c2.35-2.36,3.94-3.45,6.85-0.52c25.81,25.98,51.75,51.84,77.64,77.74
		c0.69,0.69,1.21,1.54,2.74,3.52c-4.12,3.65-8.38,7.1-12.26,10.93c-13.97,13.82-27.87,27.71-41.65,41.72
		c-2.7,2.74-4.46,3.06-7.25,0.08c-4.07-4.34-8.65-8.21-13.54-12.78c14.21-13.76,27.67-26.78,41.52-40.19
		c-4.59-4.71-8.11-8.4-11.72-12.01c-11.64-11.66-23.4-23.21-34.91-35c-2.92-2.99-4.71-2.85-7.58,0.07
		c-14,14.24-28.13,28.36-42.4,42.34c-2.97,2.91-2.93,4.62,0.03,7.56c33.08,32.86,65.97,65.93,99.1,98.74
		c3.68,3.64,3.72,5.68-0.07,9.03C364.14,217.59,360.56,222.01,356.9,225.92z"/>
	<path class="st0" d="M398.06,502.41c-14.72,14.61-29.74,29.47-44.71,44.38c-11.56,11.51-23.1,23.04-34.58,34.63
		c-2,2.02-3.47,3.18-6.07,0.55c-26.15-26.33-52.39-52.56-78.6-78.84c-0.46-0.46-0.79-1.06-2.2-2.72c5.35-4.96,10.83-9.78,16.02-14.9
		c12.45-12.28,24.89-24.57,37.05-37.13c3.59-3.71,5.78-3.52,9.11,0.18c3.65,4.05,8.03,7.45,12.5,11.51
		c-14.3,13.95-27.71,27.03-42.76,41.7c4.72,3.84,8.56,6.51,11.85,9.72c12.38,12.11,24.59,24.38,36.82,36.63
		c1.66,1.67,2.99,3.03,5.3,0.7c15.59-15.71,31.25-31.33,47.41-47.5c-4.82-4.85-9.46-9.53-14.12-14.19
		c-29.92-29.89-59.83-59.8-89.82-89.63c-2.22-2.21-2.69-3.71-0.27-6.1c4.5-4.42,8.72-9.12,12.78-13.42
		C315.46,419.71,356.47,460.77,398.06,502.41z"/>
	<path class="st0" d="M342.24,292.59c-5.91-6.09-11.18-11.53-17.53-18.08c4.09-3.69,8.69-7.49,12.89-11.68
		c35.5-35.38,70.91-70.84,106.37-106.26c4.58-4.58,4.57-4.48,9.17,0.12c24.83,24.86,49.68,49.68,74.52,74.52
		c1.16,1.16,2.25,2.38,3.15,3.33c-19.19,18.99-38.14,37.75-57.15,56.55c-4.53-4.53-9.77-9.78-15.59-15.61
		c13.48-13.12,26.88-26.17,39.97-38.91c-17.23-17.3-33.49-33.62-50.09-50.29C412.85,221.59,377.57,257.06,342.24,292.59z"/>
	<path class="st0" d="M157.48,311.16c4.63,4.97,9.42,9.81,13.73,15.05c0.64,0.78-0.45,3.93-1.62,5.12
		c-10.94,11.2-21.99,22.3-33.2,33.22c-2.91,2.83-3.17,4.6-0.11,7.58c13.58,13.26,26.92,26.77,40.37,40.17
		c6.31,6.29,4.75,6.76,11.3,0.24c27.13-27.03,54.18-54.14,81.23-81.25c6.57-6.59,13.02-13.3,19.86-20.28
		c5.68,6.01,10.87,11.51,15.75,16.67c-40.63,40.62-81.55,81.54-122.94,122.93c-0.64-0.56-2.04-1.63-3.28-2.87
		c-25.32-25.3-50.61-50.63-75.95-75.9c-1.96-1.96-3.5-3.43-0.83-6.08c17.73-17.61,35.37-35.3,53.06-52.95
		c0.34-0.34,0.84-0.52,1.26-0.78C156.57,311.73,157.02,311.45,157.48,311.16z"/>
	<path class="st0" d="M182.93,153.4c18.16,18.34,36.76,37.12,56.06,56.61c-4.52,4.48-9.55,9.68-14.92,14.5
		c-0.54,0.49-3.51-0.91-4.71-2.09c-11.05-10.85-21.96-21.85-32.92-32.79c-1.16-1.16-2.41-2.24-3.27-3.03
		c-16.5,16.44-32.81,32.7-49.34,49.18c35.07,34.89,70.56,70.19,107.36,106.8c-6,5.38-11.07,9.87-16.07,14.45
		c-2.78,2.54-4.14,0.04-5.69-1.52c-18.86-18.84-37.7-37.69-56.54-56.55c-19.9-19.92-39.8-39.84-59.69-59.76
		c-1.15-1.15-2.24-2.37-3.15-3.33C127.8,208.27,155.26,180.95,182.93,153.4z"/>
	<path class="st0" d="M408.1,376.85c13.96,14.25,26.97,27.52,41.12,41.96c7.04-7.48,13.65-14.68,20.46-21.69
		c8.12-8.36,16.23-16.74,24.72-24.71c3.57-3.36,2.93-5.21-0.19-8.3c-32.85-32.61-65.58-65.36-98.33-98.08
		c-1.4-1.4-2.71-2.89-3.94-4.2c5.56-5.54,10.91-10.87,17.2-17.14c5.08,5.4,10.18,11.09,15.56,16.48
		c34.21,34.32,68.44,68.62,102.79,102.8c3.24,3.22,3.83,5.02,0.17,8.63c-25.47,25.13-50.7,50.51-75.91,75.9
		c-2.43,2.45-3.96,2.59-6.44,0.08c-16.74-16.92-33.55-33.77-50.49-50.48c-2.96-2.92-3.04-4.7,0.1-7.54
		C399.31,386.57,403.2,382.01,408.1,376.85z"/>
	<path class="st0" d="M381.58,535.79c9.74,11.07,17.58,21.77,27.16,30.55c23.19,21.24,50.24,33.71,82.53,31.48
		c13.46-0.93,25.86-5.03,35.49-15.08c8.37-8.74,11.58-19.32,9.69-31.26c-2.09-13.24-12.46-22.59-25.94-23.72
		c-1.4-0.12-2.79-0.39-5.09-0.72c1.33-1.11,1.83-1.83,2.47-2.01c21.08-5.73,49.21,3.57,62.62,20.86
		c8.26,10.65,10.26,22.25,3.94,34.57c-4.37,8.51-10.01,9.02-15.75,1.59c-3.07-3.98-7-6.05-11.96-6.24
		c-9.64-0.38-14.58,6.42-11.99,15.65c1.55,5.5,3.37,11.46,2.71,16.93c-1.37,11.4-10.27,16.63-20.24,19.65
		c-19,5.75-38.07,4.08-56.59-1.85c-39.72-12.73-67.48-39.55-86.97-75.73c-1.43-2.65-1.16-4.46,0.97-6.58
		C377.34,541.17,379.64,538.08,381.58,535.79z"/>
	<path class="st0" d="M125.48,526.86c-4.24,0.82-7.51,1.21-10.65,2.09c-18.71,5.23-23.25,22.63-19.85,36.69
		c4.4,18.2,17.91,27.14,35.14,30.67c29.89,6.13,56.23-3.24,80.37-20.24c14.45-10.17,26.5-22.73,35.41-38.13
		c0.4-0.69,1.01-1.25,2.56-3.12c3.04,3.52,6.03,6.61,8.52,10.06c0.84,1.16,1.11,3.56,0.48,4.83
		c-21.73,43.68-69.38,84.55-126.29,81.24c-8.41-0.49-17.07-2.99-24.87-6.33c-11.75-5.02-15.8-16.06-11.95-28.25
		c0.4-1.27,0.97-2.48,1.39-3.74c2.47-7.38,1.33-12.16-3.55-14.97c-5.72-3.3-14.03-2.14-18.43,2.62c-0.79,0.85-1.44,1.83-2.13,2.77
		c-4.18,5.74-9.56,5.85-13.57-0.21c-7.04-10.63-6.86-21.7-0.56-32.56c11.44-19.75,44.04-32.16,65.74-25.18
		C123.8,525.27,124.23,525.86,125.48,526.86z"/>
	<path class="st0" d="M3.92,429.37c0.14-0.09,0.3-0.3,0.41-0.27c12.74,3.16,23.6,0.3,33.62-8.54c4.79-4.23,11.64-3.79,17.4-0.23
		c3.28,2.03,4.68,4.97,2.82,8.97c-2.74,5.9-1.9,9.01,2.51,10.63c6.42,2.36,13.11,0.07,14.76-5.17c0.59-1.89,0.83-3.9,1.1-5.88
		c0.85-6.19,3.69-9.34,9.59-10.53c12.77-2.57,26.22,3.11,33.76,13.62c1.87,2.61,5.03,5.04,8.08,5.94
		c18.21,5.39,25.86,28.49,14.18,43.73c-8.38,10.93-19.94,13.77-32.9,12.55c-1.87-0.18-3.6-1.86-6.27-3.33
		c8.08-3.89,14.07-8.34,17.15-15.9c5.56-13.66-1.04-24.11-15.66-23.01c-9.88,0.74-18.9,0.37-27.63-4.88
		c-2.77-1.67-6.76-1.97-10.12-1.77c-1.97,0.12-5,2.18-5.37,3.86c-0.35,1.6,1.81,5.14,3.42,5.53c5.73,1.37,11.7,2.39,17.57,2.34
		c6.79-0.05,13.55-1.53,20.35-2.09c5.56-0.46,11.62-0.65,14.57,5.15c3.02,5.94,1.48,12.02-2.11,17.5
		c-6.22,9.49-20.95,14.47-30.15,9.87c1.04-1.11,2.05-2.07,2.93-3.14c2.61-3.15,3.73-6.68,2.26-10.68c-1.5-4.1-4.89-6.02-8.87-6.2
		c-4.28-0.2-8.6,0.73-12.9,0.73c-7.22-0.01-14.7,0.72-21.6-0.87c-7.27-1.68-8.33-5.51-6.09-12.7c1.48-4.76-0.59-9.05-5.43-9.89
		c-3.36-0.58-6.94-0.33-10.37,0.03C14.84,445.8,5.15,438.82,3.92,429.37z"/>
	<path class="st0" d="M526.8,491.37c-1.41,0.88-2.93,2.58-4.65,2.8c-17.96,2.35-36.27-6.48-38.72-26.9
		c-1.55-12.92,7.17-25.7,19.65-29.33c2.9-0.85,5.94-3.14,7.72-5.62c7.65-10.72,21.28-16.57,34.08-14.01
		c6.05,1.21,8.71,4.28,9.55,11.05c1.19,9.58,5.32,12.72,14.41,10.97c4.95-0.96,6.88-4.6,4.89-9.23c-3-6.99-0.58-11.54,6.98-12.83
		c5.31-0.91,10.57-0.25,14.54,3.55c8.67,8.32,18.61,10.4,29.95,7.18c0.57-0.16,1.25,0.05,1.89,0.08
		c-0.88,9.4-10.96,16.77-20.91,15.71c-3.43-0.36-7-0.61-10.37-0.08c-4.72,0.74-6.87,4.74-5.72,9.32c0.72,2.89,3.82,6.05,0.49,8.67
		c-3.27,2.57-7.09,5.37-11,5.98c-5.46,0.85-11.22-0.17-16.85-0.51c-3.64-0.22-7.27-0.84-10.91-0.91c-4.79-0.09-9.05,1.44-10.98,6.22
		c-1.92,4.76-0.07,8.76,3.5,12.1c0.47,0.44,0.9,0.94,1.62,1.7c-4.71,3.56-9.64,2.02-14.31,1.03c-10.75-2.28-19.04-11.71-19.27-21.42
		c-0.18-7.71,3.61-12.08,11.39-11.95c7.13,0.13,14.23,1.42,21.37,1.73c5.78,0.25,11.59-0.09,17.37-0.43
		c1.57-0.09,3.47-0.75,4.52-1.82c1.36-1.4,3.02-3.68,2.7-5.2c-0.33-1.58-2.89-3.83-4.42-3.79c-4.22,0.12-8.98,0.27-12.51,2.24
		c-7.78,4.32-15.51,5.55-24.27,4.28c-6.85-1-14.3-0.47-17.71,7.03c-3.54,7.78-1.86,15.54,3.65,21.89
		C517.75,484.66,522.16,487.5,526.8,491.37z"/>
	<path class="st0" d="M396.82,520.04c11.79,18.27,26,30.58,42.74,40.09c17.88,10.15,36.74,14.59,57.08,9.15
		c6.8-1.82,12.95-4.98,14.53-12.77c2.31-11.38-8.38-20.05-20.93-17.07c-2.24,0.53-4.4,1.44-6.59,2.18c-0.35-0.32-0.7-0.64-1.06-0.96
		c2.46-2.23,4.63-4.95,7.42-6.62c11.19-6.66,27.9-4.44,36.54,4.54c8.64,8.98,9.79,24.5,2.35,36.15
		c-8.32,13.02-21.23,18.3-35.84,19.76c-29.44,2.94-54.46-7.93-76.98-25.79c-11.03-8.75-20.39-19.06-27.68-31.21
		c-1.89-3.16-2.23-5.42,0.84-8.17C391.93,526.93,393.88,523.72,396.82,520.04z"/>
	<path class="st0" d="M148.09,540.79c-6.82-1.69-12.83-2.99-19.19-0.46c-5.26,2.09-8.52,5.67-9.24,11.33
		c-0.77,6.06,1.55,10.79,6.64,14.04c7.61,4.85,16.23,5.76,24.94,5.84c19.9,0.18,36.78-8.11,52.48-19.3
		c10.92-7.78,20.53-16.93,27.76-28.37c0.43-0.68,1.06-1.23,2.16-2.46c3.49,3.52,7.03,6.72,10.02,10.38c0.71,0.87,0.01,3.5-0.79,4.89
		c-8.14,14.25-19.32,25.81-32.45,35.46c-20.55,15.09-43.14,24.24-69.19,22.65c-10.66-0.65-20.63-3.39-29.47-9.67
		c-13.63-9.69-18.65-27.72-11.33-41.02c8.26-15.02,32.28-18.83,44.68-7.05C146.26,538.14,147.1,539.54,148.09,540.79z"/>
	<path class="st0" d="M219.04,102.84c32.4-32.44,64.47-64.56,96.26-96.39c31.94,31.97,64.1,64.16,95.74,95.83
		c-20.76,20.86-41.84,42.06-63.33,63.65c-1.1-1.07-2.36-2.3-4.03-3.93c2.48-2.58,4.48-4.74,6.56-6.82
		c16.5-16.48,32.98-32.99,49.57-49.37c2.51-2.47,3-4.05,0.2-6.83c-27.42-27.21-54.7-54.56-82.03-81.86
		c-0.68-0.68-1.51-1.21-2.08-1.66c-29.02,29.16-57.85,58.14-87.18,87.61c1.87,1.93,4.23,4.41,6.66,6.84
		c38.16,38.15,76.34,76.29,114.47,114.48c1.22,1.22,2.5,2.81,2.75,4.38c0.14,0.89-1.65,2.68-2.84,2.98
		c-1.03,0.26-2.73-0.73-3.65-1.65c-11.02-10.88-21.95-21.86-32.9-32.8c-30.15-30.15-60.31-60.29-90.45-90.44
		C221.38,105.47,220.1,103.99,219.04,102.84z"/>
	<path class="st0" d="M218.98,501.76c21.32-21.26,42.49-42.37,64-63.82c1.03,0.94,2.32,2.12,3.93,3.59
		c-19.94,19.67-39.65,39.12-60.74,59.93c5.39,4.68,9.85,8.13,13.83,12.08c23.98,23.83,47.88,47.72,71.68,71.73
		c2.83,2.85,4.41,3.23,7.48,0.13c26.49-26.73,53.17-53.27,79.78-79.87c1.27-1.27,2.46-2.64,4.27-4.58
		c-42.01-41.89-83.8-83.56-125.54-125.18c2.27-4.05,4.08-5.55,7.77-1.85c40.8,40.92,81.72,81.71,122.59,122.55
		c1.52,1.51,2.88,3.19,4.91,5.45c-8.15,7.92-16.22,15.59-24.1,23.45c-22.99,22.9-45.99,45.8-68.79,68.91
		c-3.53,3.58-5.44,3.64-9.03,0.02c-29.05-29.32-58.33-58.41-87.52-87.6C221.84,505.07,220.35,503.28,218.98,501.76z"/>
	<path class="st0" d="M258.77,260.83c5.25-4.96,10.67-10.08,15.7-14.83c32.13,32.16,64.41,64.48,96.97,97.07
		c-4.87,4.5-10.44,9.63-15.83,14.6C323.87,325.93,291.55,293.6,258.77,260.83z"/>
	<path class="st0" d="M423.89,312.12c3.9,4.05,8.45,8.86,13.11,13.57c2.4,2.43,0.47,3.83-1.03,5.34
		c-9.85,9.92-19.71,19.84-29.6,29.73c-20.14,20.12-40.29,40.22-60.45,60.32c-1.28,1.28-2.63,2.48-4.07,3.83
		c-5.27-5.61-10.34-11.02-15.02-16C358.51,377.32,390.94,344.98,423.89,312.12z"/>
	<path class="st0" d="M207.7,290.91c-4.44-4.53-9.64-9.83-15.26-15.56c6.46-6.55,13.03-13.3,19.7-19.97
		c24.26-24.27,48.62-48.44,72.74-72.84c3.5-3.54,5.69-3.94,9.09-0.09c3.62,4.1,7.87,7.63,11.4,10.99
		C272.44,226.32,240.01,258.68,207.7,290.91z"/>
	<path class="st0" d="M384.45,401.06c1.52-1.67,2.71-2.98,4.83-5.31c5.65,6.04,10.52,11.49,15.64,16.67
		c13.12,13.26,26.47,26.3,39.46,39.68c3.31,3.41,5.19,3.07,8.35-0.12c26.61-26.85,53.34-53.58,80.16-80.22
		c2.64-2.62,2.78-4.18,0.12-6.82c-39.53-39.39-78.98-78.87-118.46-118.32c-4.43-4.43-4.47-4.4,0.7-8.73
		c5.57,5.5,11.24,11.03,16.84,16.63c36.51,36.52,72.97,73.1,109.6,109.5c3.45,3.43,3.4,5.25-0.02,8.65
		c-30.03,29.77-59.9,59.72-89.74,89.68c-2.3,2.3-3.86,3.01-6.5,0.34c-19.34-19.52-38.82-38.91-58.23-58.36
		C386.39,403.51,385.71,402.56,384.45,401.06z"/>
	<path class="st0" d="M308.9,329.97c1.4,1.64,2.56,2.98,4.15,4.84c-3.98,4.09-7.73,8.03-11.57,11.88
		c-38.25,38.26-76.54,76.48-114.71,114.81c-3.07,3.08-4.89,3.76-8.36,0.25c-29.64-29.92-59.45-59.67-89.33-89.34
		c-2.96-2.94-3.63-4.7-0.32-7.95c18.99-18.69,37.74-37.63,56.65-56.4c1.27-1.27,3.33-2.83,4.78-2.61c3.25,0.49,3.47,3.86,0.56,6.8
		c-11.75,11.8-23.55,23.57-35.33,35.34c-5.77,5.77-11.47,11.61-17.37,17.25c-2.58,2.47-2.82,4.12-0.06,6.85
		c26.94,26.74,53.8,53.57,80.51,80.54c3.11,3.14,4.79,3.14,7.9,0.02c39.58-39.76,79.3-79.39,118.99-119.05
		C306.21,332.37,307.09,331.62,308.9,329.97z"/>
	<path class="st0" d="M322.76,272.97c-5.26-3.72-5.27-3.92-1.06-8.12c40.15-40.15,80.29-80.31,120.43-120.46
		c0.82-0.82,1.74-1.57,2.46-2.49c2.68-3.42,4.89-3.22,7.98-0.04c12.29,12.66,24.84,25.08,37.33,37.55
		c17.31,17.3,34.57,34.67,52.05,51.8c3.35,3.28,3.19,5.09-0.09,8.31c-18.63,18.34-37.02,36.93-55.51,55.42
		c-1.39,1.39-2.9,2.66-4.27,3.91c-5.42-3.38-5.5-3.83-1.6-7.72c17.21-17.18,34.33-34.44,51.7-51.46c3.5-3.43,3.25-5.35-0.14-8.7
		c-26.64-26.34-53.13-52.82-79.5-79.42c-3.04-3.06-4.72-3.37-7.92-0.15c-39.57,39.78-79.28,79.42-118.96,119.09
		C324.74,271.41,323.69,272.19,322.76,272.97z"/>
	<path class="st0" d="M220.58,361.44c-1.85,1.76-3.15,2.99-5.09,4.83c-7.14-7.32-14.04-14.53-21.09-21.59
		c-34.96-35.01-69.92-70.02-105.02-104.89c-3.32-3.3-3.73-5.15-0.17-8.68c29.83-29.51,59.51-59.18,89.07-88.98
		c3.24-3.27,5.01-3.41,8.28-0.1c18.71,18.97,37.68,37.69,56.44,56.61c1.22,1.23,2.43,3.95,1.87,5.17c-1.56,3.42-3.84,2.44-6.16,0.1
		c-10.89-11.01-21.9-21.9-32.85-32.86c-6.71-6.71-13.47-13.37-20.05-20.22c-2.34-2.43-3.99-2.76-6.53-0.19
		c-26.64,26.81-53.3,53.6-80.17,80.18c-3.59,3.56-3.66,5.48-0.07,9.05c39.24,38.98,78.31,78.13,117.43,117.23
		C217.75,358.4,218.96,359.74,220.58,361.44z"/>
	<path class="st0" d="M105.94,208.85c-2.19,4.38-4.85,5.77-9.19,4.79c-9-2.04-18.02-4.27-25.04-10.49
		c-3.85-3.41-6.63-8.1-9.58-12.43c-1.48-2.18-1-3.95,1.8-5.55c9.53-5.45,11.02-15.74,3.5-23.94c-2.27-2.48-2.62-4.75-0.58-6.98
		c2.99-3.26,6.01-6.73,9.69-9.07c8.75-5.57,16.42-11.72,20.12-22c1.04-2.88,3.92-5.35,6.45-7.38c3.05-2.44,6.04-3.71,9.81,0.22
		c5.13,5.34,15.21,4.33,18.87-1.83c2.75-4.65,5.93-4.07,9.63-2.72c8.16,2.98,14.37,8.53,18.38,16.1c2.7,5.09,4.6,10.65,6.4,16.16
		c1.65,5.06,0.91,6.15-4.1,8.78c-2.2-4.61-4.06-9.43-6.66-13.8c-6.69-11.26-17.55-16-29.27-11.96c-4.2,1.44-7.93,5.15-11.03,8.59
		c-3.08,3.4-4.91,7.89-7.62,11.66c-4.54,6.33-11.46,9.35-18.17,12.76c-18,9.16-19.11,30.41-2.16,41.32
		c3.45,2.22,7.42,3.68,11.23,5.3C100.66,207.33,103.06,207.92,105.94,208.85z"/>
	<path class="st0" d="M525.12,209.22c5.57-2.21,10.79-3.86,15.63-6.29c13.8-6.92,19.12-20.85,11.93-32.74
		c-2.59-4.29-7-8.37-11.54-10.43c-11.01-5.02-19.1-12.5-24.38-23.24c-6.5-13.23-23.62-13.38-32.42-7.25
		c-6.27,4.37-10.11,10.46-12.85,17.39c-0.78,1.98-1.47,4-2.28,6.2c-4.09-1.84-5.95-4.05-4.74-8.65c3-11.4,7.6-21.73,17.6-28.71
		c2.56-1.78,5.44-3.28,8.39-4.27c3.35-1.13,6.25-1.28,8.71,2.88c3.8,6.43,13.56,7.19,19.19,1.62c3.16-3.12,5.83-2.97,8.51-0.53
		c3.01,2.74,6.46,5.66,7.99,9.24c3.44,8.07,8.97,13.73,16.13,18.47c4.64,3.07,8.84,6.91,12.79,10.85c2.29,2.29,2.3,4.92-0.49,7.78
		c-7.22,7.4-5.77,18.13,3.19,23.31c3.37,1.95,3.48,3.78,2.2,6.79c-3.56,8.36-10.19,13.56-18.21,16.86
		c-5.65,2.33-11.71,3.67-17.63,5.31C529.05,214.84,527.02,212.51,525.12,209.22z"/>
	<path class="st0" d="M515.4,201.26c9.58-8.36,10.69-17.68,7.02-27.73c-2.56-7-5.8-13.77-12.27-18.02c-0.45,0.3-0.9,0.59-1.35,0.89
		c2.32,3.55,4.63,7.1,6.95,10.65c-0.25,0.45-0.5,0.9-0.75,1.35c-2.21-0.56-4.59-0.77-6.58-1.77c-2.19-1.1-4-2.95-6.01-4.44
		c-7.23-5.36-13.17-4.92-19.47,1.42c-0.57,0.57-1.23,1.04-2.94,2.46c-2.38-2.81-4.8-5.51-7-8.37c-0.61-0.79-1.04-2.2-0.78-3.11
		c2.31-8.27,5.49-16.1,12.56-21.62c9.39-7.33,23.31-6.06,28.63,4.37c6.65,13.02,16.84,20.69,29.35,27.04
		c11.87,6.03,13.29,20.89,3.87,30.37c-6.52,6.56-14.93,9.31-23.62,10.93C521.04,206.04,518.49,203.15,515.4,201.26z"/>
	<path class="st0" d="M152.1,164.59c-5.94-2.47-10.2-5.64-14.43-5.59c-3.96,0.04-7.99,3.29-11.79,5.49
		c-3.2,1.85-5.86,5.04-10.92,2.84c2.56-3.78,4.96-7.31,7.68-11.33c-5.77,0.79-12.3,10.08-15.04,20.58
		c-2.42,9.27-0.4,17.43,6.89,23.77c-2.37,4.98-5.75,6.8-10.61,4.52c-6.11-2.86-12.89-4.95-18.08-9.03
		c-11.42-8.97-9.65-24.76,2.86-32.02c0.86-0.5,1.72-1.03,2.64-1.41c11.4-4.62,19.68-12.17,25.14-23.54
		c4.71-9.8,15.9-13.02,25.62-8.42c10.3,4.88,13.96,14.63,16.88,24.7c0.18,0.64-0.22,1.67-0.69,2.24
		C155.86,160.3,153.35,163.13,152.1,164.59z"/>
	<path class="st0" d="M379.67,202.65c-1.44,1.49-2.69,2.77-3.62,3.74c-35.09-35.17-69.71-69.88-105.55-105.81
		c4.56-4.13,9.86-8.65,14.85-13.5c8.95-8.7,17.8-17.52,26.49-26.48c2.71-2.8,4.46-2.89,7.25-0.03
		c12.69,12.98,25.54,25.8,38.47,38.54c2.43,2.4,2.68,3.91,0.1,6.43c-10.61,10.34-21,20.91-31.52,31.36
		c-3.96,3.93-4.25,3.83-7.99-1.93c10.84-10.51,21.8-21.14,33.25-32.24c-5.52-5.56-10.4-10.47-15.27-15.38
		c-5.75-5.79-11.58-11.5-17.19-17.43c-2.53-2.67-4.25-2.65-6.86,0.03c-9.64,9.9-19.45,19.65-29.35,29.29
		c-2.71,2.64-1.86,4.19,0.41,6.44c24.22,24.07,48.36,48.22,72.52,72.36c7.07,7.06,14.12,14.14,21.16,21.24
		C377.72,200.2,378.49,201.26,379.67,202.65z"/>
	<path class="st0" d="M351.4,500.91c-33.51-33.28-66.66-66.2-100.37-99.68c1.77-1.66,3.07-2.89,4.1-3.85
		c35,35.12,69.62,69.85,104.83,105.17c-6.72,6.58-14.08,13.76-21.4,20.98c-6.75,6.67-13.46,13.38-20.15,20.11
		c-1.68,1.7-3.05,2.86-5.33,0.55c-13.68-13.87-27.46-27.63-41.2-41.43c-0.34-0.35-0.57-0.81-1.92-2.33
		c6.64-6.25,13.33-12.44,19.89-18.76c5.04-4.85,9.88-9.9,14.89-14.78c1.65-1.61,3.06-4.31,6.07-1.44c2.97,2.83,0.62,4.35-1.1,6.07
		c-8.47,8.49-16.97,16.94-25.45,25.43c-1.38,1.38-2.67,2.85-4.31,4.62c11.39,11.34,22.43,22.4,33.63,33.29
		c0.69,0.67,3.29,0.54,4.04-0.2C328.67,523.82,339.54,512.82,351.4,500.91z"/>
	<path class="st0" d="M347.13,501.75c-10.26,9.99-19.86,19.43-29.65,28.68c-0.73,0.69-3.28,0.64-4.04-0.07
		c-9.81-9.23-19.44-18.65-30.77-29.61c4.51-3.66,8.31-6.36,11.65-9.54c6.27-5.97,12.2-12.29,18.47-18.26
		c0.95-0.91,3.73-1.51,4.36-0.9C326.97,481.51,336.55,491.19,347.13,501.75z"/>
	<path class="st0" d="M315.41,133.85c-10.07-10.2-19.46-19.61-28.65-29.21c-0.79-0.82-0.9-3.6-0.18-4.36
		c8.78-9.1,17.72-18.04,26.82-26.82c0.76-0.73,3.56-0.63,4.38,0.16c8.87,8.54,17.59,17.24,26.16,26.07
		c0.89,0.91,1.34,3.75,0.68,4.44C335.22,113.96,325.59,123.57,315.41,133.85z"/>
	<path class="st0" d="M315.69,203.67c10.11,10.34,19.55,19.91,28.81,29.66c0.71,0.74,0.71,3.32,0.01,4.05
		c-8.8,9.07-17.74,18.01-26.84,26.78c-0.8,0.77-3.59,0.79-4.38,0.03c-8.98-8.65-17.82-17.46-26.49-26.42
		c-0.81-0.83-0.98-3.63-0.26-4.39C295.82,223.67,305.32,214.16,315.69,203.67z"/>
	<path class="st0" d="M555.59,110.36c0.08,1.5,0.01,4.35,0.43,7.13c0.96,6.4,4.28,9.18,10.72,9.57c2.64,0.16,5.31,0.4,7.9,0.94
		c7.28,1.53,10.77,5.83,11.36,13.67c0.5,6.55-2.25,10.31-9.19,13.04c-4.53,1.79-7.97,3.14-10.79-3.24
		c-1.7-3.84-6.26-6.82-10.13-9.21c-8.27-5.1-14.93-11.12-18.9-20.41c-1.73-4.04-5.94-7.62-9.89-9.93c-3.69-2.16-4.33-3.81-3.14-7.66
		c3.08-9.94,11.86-15.74,21.23-13.53c7.84,1.85,11.41,6.75,10.8,14.81C555.89,106.71,555.79,107.87,555.59,110.36z"/>
	<path class="st0" d="M61.94,157.15c-2.95-0.93-5.19-1.54-7.36-2.33c-7.54-2.77-10.08-6.35-9.55-13.24
		c0.64-8.19,4.03-12.16,11.91-13.7c2.28-0.45,4.61-0.67,6.93-0.8c6.92-0.39,10.46-3.43,11.21-10.26c0.35-3.12,0.22-6.33,0.02-9.48
		c-0.62-9.73,2.06-14.23,9.99-16.42c7.8-2.15,16.88,1.84,20.28,8.99c0.71,1.49,0.97,3.19,1.65,4.69c1.66,3.65,0.16,5.1-3.06,7.28
		c-4.23,2.86-8.54,6.79-10.67,11.28c-3.61,7.62-8.69,13.26-15.76,17.44C70.86,144.54,64.61,148.91,61.94,157.15z"/>
	<path class="st0" d="M410.68,374.57c1.18-1.25,2.4-2.54,3.77-3.98c11.26,11.59,21.9,22.54,32.91,33.88
		c3.02-2.69,5.16-4.42,7.1-6.36c8.72-8.7,17.26-17.59,26.15-26.11c3.14-3.01,2.72-4.76-0.12-7.58
		c-30.92-30.75-61.75-61.59-92.56-92.44c-3.87-3.88-3.73-4.37,2.13-8.32c8.27,8.54,16.61,17.35,25.16,25.94
		c24.43,24.53,48.95,48.97,73.44,73.44c5.19,5.19,5.17,5.15,0.05,10.28c-12,12.01-23.96,24.05-35.96,36.06
		c-1.27,1.27-2.67,2.42-3.75,3.4C436.3,400.14,423.87,387.73,410.68,374.57z"/>
	<path class="st0" d="M286.39,308.68c-34.83,34.79-69.41,69.33-104.94,104.82c-4.06-4.37-8.23-9.09-12.64-13.56
		c-9.36-9.48-18.85-18.84-28.3-28.23c-1.69-1.68-3.65-3.09-1.03-5.68c11.85-11.69,23.62-23.45,36.48-36.24
		c1.17,1.73,2.24,3.3,3.7,5.44c-2.57,2.62-5.19,5.34-7.85,8.01c-7.29,7.31-14.51,14.7-21.95,21.86c-2.55,2.46-2.48,4.01,0.03,6.46
		c9.9,9.65,19.68,19.43,29.34,29.32c2.43,2.49,3.95,2.53,6.45,0.02c30.91-31.04,61.96-61.93,92.83-93
		C281.93,304.47,284.11,304.21,286.39,308.68z"/>
	<path class="st0" d="M454.92,272.67c-4.29-2.6-3.35-4.87-0.29-7.81c8.99-8.67,17.7-17.63,26.58-26.42c1.89-1.87,2.9-3.38,0.48-5.74
		c-10.71-10.49-21.28-21.11-31.93-31.66c-0.33-0.32-0.85-0.45-2.34-1.19c-6.11,6.37-12.31,13.06-18.74,19.52
		c-25.48,25.61-51.04,51.15-76.57,76.71c-3.77,3.77-4.43,3.62-7.41-1.25c34.64-34.59,69.23-69.14,103.8-103.67
		c14.47,14.72,29.12,29.63,43.53,44.29C480.08,247.43,467.51,260.04,454.92,272.67z"/>
	<path class="st0" d="M242.15,339.12c-34.58-34.63-69.13-69.22-103.61-103.75c14.53-14.39,29.46-29.16,45.48-45.03
		c6.71,7.1,13.85,14.71,21.07,22.24c3.92,4.08,8.01,8,11.98,12.04c3.95,4.02,3.92,4.14-1.92,8.22
		c-10.56-10.98-21.24-22.09-31.75-33.01c-12.36,12.36-23.95,23.96-36.04,36.06c3.76,3.79,7.69,7.79,11.65,11.75
		c28.02,28.02,56.04,56.03,84.05,84.05C246.95,335.57,246.87,335.94,242.15,339.12z"/>
	<path class="st0" d="M83.66,491.83c-8.47,6.27-14.92,13.5-17.03,23.35c-1.16,5.43-0.66,11.21-1.02,16.82
		c-0.1,1.57-0.05,3.52-0.94,4.59c-3.57,4.33-7.47,8.39-11.29,12.59c-13.65-5.22-18.51-26.14-10.52-43.52
		C49.05,492.2,68.46,485.05,83.66,491.83z"/>
	<path class="st0" d="M547.57,491.75c11.55-6.49,31.14-1.26,38.48,10.45c6.98,11.14,7.61,23.22,2.99,35.44
		c-0.97,2.57-2.78,4.95-4.65,7.02c-5.22,5.78-5.76,4.8-11.24-0.29c-6.81-6.33-8.08-13.21-7.69-21.92
		c0.43-9.72-4.45-17.9-11.28-24.75C552.21,495.73,550.02,493.95,547.57,491.75z"/>
	<path class="st0" d="M315.41,399.93c-10.14-10.3-19.49-19.77-28.79-29.29c-0.63-0.65-1.29-1.67-1.26-2.5
		c0.09-3.05,9.09-9.7,12.2-9.05c11.91,2.49,23.8,2.45,35.72,0.05c3.12-0.63,12.19,5.83,12.4,8.83c0.05,0.71-0.39,1.65-0.91,2.18
		C335.23,379.88,325.66,389.55,315.41,399.93z"/>
	<path class="st0" d="M532.49,218.4c8.88-3.42,16.33-5.76,23.29-9.11c7.19-3.45,12.76-8.99,15.83-16.61
		c2.09-5.17,5.2-6.97,11.94-6.34c4.83,0.46,7.95,3.25,9.08,7.97c1.96,8.15-1.01,14.75-6.99,20.09c-7.34,6.55-16.32,9.58-25.87,10.67
		c-5.58,0.64-11.44,1.02-16.88-0.02C539.33,224.4,536.3,220.96,532.49,218.4z"/>
	<path class="st0" d="M97.81,217.58c-3.64,4.66-6.94,8.04-13.17,8.13c-12.58,0.18-24.57-1.38-35.4-8.26
		c-8.62-5.49-12.86-14.05-11.12-22.17c1.4-6.5,5.77-9.15,12.3-8.8c5.4,0.29,7.69,2.51,9.73,7.52c3.92,9.64,12.42,14.95,21.78,18.62
		C86.93,214.57,92.2,215.85,97.81,217.58z"/>
	<path class="st0" d="M222.27,296.49c8.69-8.39,16.5-16.08,24.57-23.49c0.83-0.76,3.84-0.48,4.78,0.43
		c8.54,8.15,16.89,16.52,25.21,24.9c3.31,3.33,2.5,7.51-2.03,7.91C257.07,307.78,239.65,306.74,222.27,296.49z"/>
	<path class="st0" d="M408.63,297.05c-5.28,2.29-9.36,4.46-13.69,5.86c-11.88,3.83-24.17,4.67-36.53,3.52
		c-2.27-0.21-4.35-2.46-6.52-3.77c1.06-1.74,1.83-3.75,3.21-5.16c7.79-7.97,15.72-15.82,23.63-23.68c1.48-1.47,2.81-3.56,5.29-1.09
		C391.87,280.58,399.8,288.35,408.63,297.05z"/>
	<path class="st0" d="M418.08,234.13c9.09-8.98,18.61-18.44,28.2-27.83c3.35-3.28,5.53,0.14,5.71,2.19
		c1.5,17.67,1.33,35.13-9.48,50.56C434.39,250.78,426.57,242.8,418.08,234.13z"/>
	<path class="st0" d="M189.41,260.25c-6.78-9.22-9.66-18.36-10.55-28.06c-0.62-6.77-0.55-13.65-0.25-20.45
		c0.09-2.17,1.9-4.27,2.92-6.41c1.7,0.99,3.69,1.69,5.06,3.03c8.11,7.9,16.14,15.87,24,24.02c0.99,1.03,1.67,4.01,1.01,4.73
		C204.55,244.8,197.2,252.22,189.41,260.25z"/>
	<path class="st0" d="M171.68,145.72c-4.26-8.83-7.04-16.17-11.12-22.7c-5.29-8.45-13.08-13.98-23.24-15.8
		c-1.3-0.23-3.05-1.98-3.3-3.27c-0.88-4.64-2.7-9.88,2.34-13.28c5.48-3.7,11.68-3.97,17.64-1.29c8.9,4.01,13.39,12.11,15.99,20.73
		c2.61,8.67,3.8,17.83,4.91,26.86C175.2,139.46,173.04,142.25,171.68,145.72z"/>
	<path class="st0" d="M459.27,145.12c-1.22-2.67-3.27-5.05-3.22-7.39c0.28-13.44,2.61-26.5,9.94-38.1
		c6.36-10.06,14.8-13.74,24.34-11.03c7.02,2,10.43,11.59,6.12,17.44c-0.5,0.68-1.62,1.12-2.51,1.28
		c-16.58,2.97-24.97,14.49-30.43,29.07c-0.92,2.47-1.64,5.02-2.47,7.52C461,144.03,460.79,144.1,459.27,145.12z"/>
	<path class="st0" d="M188.9,272.69c-1.22-1.02-2.47-2.08-3.93-3.3c0.98-1.37,1.51-2.38,2.28-3.15
		c30.46-30.51,60.93-61.01,91.42-91.5c3.9-3.9,4.21-3.83,7.39,0.7C253.72,207.81,221.44,240.12,188.9,272.69z"/>
	<path class="st0" d="M379.16,336.22c-1.07,1.03-2.36,2.26-3.45,3.3c-32.65-32.66-64.92-64.93-97.57-97.58
		c0.93-1.06,2.18-2.47,3.2-3.62C313.93,270.92,346.17,303.2,379.16,336.22z"/>
	<path class="st0" d="M215.83,299.02c-5.23-3.85-5.27-4.16-1.37-8.05c30.01-29.98,60-59.98,90.08-89.89
		c1.3-1.29,3.96-2.86,5.09-2.34c3.38,1.54,3.01,3.85,0.33,6.48c-12.1,11.88-24.04,23.92-36.03,35.91
		c-17.99,17.98-35.97,35.97-53.96,53.95C218.67,296.38,217.32,297.6,215.83,299.02z"/>
	<path class="st0" d="M352.84,361.88c-2.29,4-4.57,3.75-8.1,0.2c-29.73-30-59.65-59.81-89.51-89.68c-4.25-4.25-4.25-4.25,0.37-7.83
		C288.02,297.01,320.4,329.42,352.84,361.88z"/>
	<path class="st0" d="M414.76,304.48c4.34,2.5,5.77,4.28,2.08,7.95c-30.38,30.16-60.57,60.51-90.94,90.68
		c-1.15,1.15-4,2.03-5.21,1.41c-3.04-1.58-2.03-3.67,0.16-5.85c20.56-20.43,41.04-40.93,61.5-61.46
		C393.17,326.37,403.9,315.45,414.76,304.48z"/>
	<path class="st0" d="M442.05,331.11c3.98,2.3,3.88,4.36,0.38,7.81c-29.46,29.17-58.71,58.55-88.03,87.86
		c-1.85,1.85-3.8,3.59-6.02,5.67c-1.62-1.55-2.89-2.77-3.89-3.72C377.19,396,409.47,363.7,442.05,331.11z"/>
	<path class="st0" d="M404.86,427.98c-5.62,14.46-11.24,28.9-17.15,44.09c-3.33-3.52-6.96-7.26-10.44-11.14
		c-0.57-0.64-0.85-1.89-0.71-2.77c2.45-15.16,8.29-28.94,16.88-41.74C397.71,420.74,401.7,424.78,404.86,427.98z"/>
	<path class="st0" d="M243.36,472.27c-5.95-15.34-11.55-29.78-17.55-45.24c2.82-2.72,6.85-6.61,11.17-10.78
		c0.89,1.05,1.83,1.94,2.49,3c7.18,11.55,12.42,23.9,14.63,37.36c0.3,1.8-0.53,4.25-1.69,5.74
		C249.67,465.88,246.41,468.99,243.36,472.27z"/>
	<path class="st0" d="M197.6,385.6c-11.33-12.54-24.45-19.28-39.19-23.25c-0.25-0.53-0.5-1.06-0.75-1.59
		c3.56-3.14,7.01-6.42,10.76-9.31c1.05-0.81,3.13-0.92,4.53-0.54c12.68,3.39,24.08,9.28,34.05,17.9c2.32,2,3.02,3.46,0.42,5.93
		C204.08,377.92,201.19,381.59,197.6,385.6z"/>
	<path class="st0" d="M433.31,385.72c-3.75-4.21-7.29-7.95-10.47-11.98c-0.63-0.79-0.42-3.28,0.34-3.97
		c10.25-9.41,22.23-15.71,35.72-19.05c1.19-0.3,3,0.18,3.97,0.98c3.47,2.83,6.71,5.94,11.26,10.05
		C457.96,366.5,444.54,373.01,433.31,385.72z"/>
	<path class="st0" d="M513.18,198.04c-9.43-9.44-18.72-18.65-27.82-28.06c-0.71-0.73-0.59-3.15,0.08-4.17
		c2.7-4.1,7.44-5.29,11.78-2.99c2.46,1.31,4.44,3.58,6.95,4.73c3.48,1.61,7.26,2.56,10.9,3.82c1.27,0.44,3.08,0.58,3.69,1.49
		C523.79,180.39,521.2,192.72,513.18,198.04z"/>
	<path class="st0" d="M117.53,198.03c-7.65-5.63-10.21-18.26-5.34-25.29c0.58-0.84,2.26-1.48,3.31-1.33
		c5.14,0.73,8.92-1.68,12.59-4.75c1.89-1.58,3.98-3.04,6.21-4.07c4.23-1.95,8.97-0.6,11.33,3.3c0.63,1.04,0.65,3.43-0.09,4.19
		C136.39,179.43,127.05,188.59,117.53,198.03z"/>
	<path class="st0" d="M372.62,457.39c-3.11-3.42-5.57-5.87-7.68-8.59c-0.79-1.01-1.27-2.75-1.04-4c2.57-13.75,8.27-26.17,16.2-37.64
		c1.64-2.38,2.93-2.51,5.1-0.52c6.51,5.96,5.94,5.59,2.29,13.46c-4.99,10.77-8.88,22.04-13.25,33.09
		C373.9,454.09,373.56,454.98,372.62,457.39z"/>
	<path class="st0" d="M248.6,404.42c7.37,9.3,12.23,19.16,15.81,29.72c0.21,0.63,0.33,1.28,0.48,1.93c3.15,13.5,4.9,9.33-6.71,20.21
		c-0.54-1.05-1.25-1.92-1.44-2.89c-2.46-12.34-7.02-23.88-13.92-34.35c-2.97-4.51-2.92-7.66,1.52-10.75
		C245.68,407.37,246.78,406.1,248.6,404.42z"/>
	<path class="st0" d="M181.12,399.02c-9.04-9.28-18.53-18.98-27.93-28.78c-0.61-0.64-0.87-2.75-0.59-2.9
		c1.47-0.81,3.42-2.03,4.74-1.62c6.3,1.97,12.84,3.71,18.54,6.88c6.69,3.73,12.59,8.86,19.75,14.04
		C190.43,391.08,186.32,394.59,181.12,399.02z"/>
	<path class="st0" d="M435.46,388.38c11.32-12.77,23.69-19.4,37.93-22.67c1.52-0.35,3.45,1.09,5.19,1.7c-0.65,1.34-1,2.98-1.99,3.99
		c-8.25,8.41-16.67,16.66-24.91,25.08c-2.35,2.4-3.93,2.65-6.44,0.01C442.42,393.52,438.92,391.2,435.46,388.38z"/>
	<path class="st0" d="M561.14,532.18c-5.02-2.51-10.07-4.94-15-7.58c-0.78-0.42-1.53-1.87-1.46-2.78
		c0.99-12.59-5.32-20.79-16.22-26.63c2.7-3.53,6.37-3.24,9.53-2.67c11.91,2.15,18.5,10.5,22.67,21.01
		C563.31,520.22,563.19,527.17,561.14,532.18z"/>
	<path class="st0" d="M102.26,494.79c-3.4,2.71-6.78,4.88-9.52,7.68c-4.76,4.84-7.06,10.87-6.38,17.72c0.27,2.77-0.55,4.24-3.1,5.36
		c-4.53,1.99-8.91,4.33-13.35,6.52c-4.89-11.39,2.13-26.61,11.3-34.15C88.47,491.93,96.33,490.63,102.26,494.79z"/>
	<path class="st0" d="M167.46,219.68c0.88,2.72,1.37,4.94,2.29,6.97c4.89,10.86,9.8,21.71,14.92,32.46
		c1.03,2.17,2.13,4.22-0.42,5.41c-1.2,0.56-3.74-0.18-4.83-1.22c-9.47-9-18.74-18.2-27.88-27.15
		C157.11,230.38,162.01,225.32,167.46,219.68z"/>
	<path class="st0" d="M464.59,220.79c4.39,4.61,9.26,9.72,14.7,15.43c-9.4,9.23-19.04,18.78-28.84,28.18
		c-0.69,0.66-2.89,0.67-3.69,0.06c-0.88-0.67-1.66-2.74-1.25-3.62C451.71,247.53,458.1,234.32,464.59,220.79z"/>
	<path class="st0" d="M136.92,542.21c4.37,0.54,10.35,0.95,12.62,6.53c2.23,5.5-1.95,9.74-5.51,13.5
		c-4.64,4.89-7.57,5.31-13.28,2.45c-6.17-3.09-8.68-7.17-7.94-12.95C123.56,545.74,128.47,542.18,136.92,542.21z"/>
	<path class="st0" d="M508.29,556.27c-0.04,3.58-4.28,6.53-9.23,9.03c-4.65,2.34-8.37,0.86-11.6-2.58c-3.76-4-8.5-8.34-5.81-14.22
		c2.64-5.77,8.92-6.39,14.71-6.21C503.83,542.52,508.32,546.92,508.29,556.27z"/>
	<path class="st0" d="M508.17,277.52c5.34,14.26,3.93,37.04-3.37,47.06c-2.68-3.3-5.35-6.26-7.57-9.53c-0.75-1.1-0.5-2.99-0.46-4.51
		c0.14-6.05,0.28-12.11,0.62-18.15c0.1-1.81,0.34-3.99,1.41-5.28C501.48,283.87,504.67,281.03,508.17,277.52z"/>
	<path class="st0" d="M123.66,277.7c3.16,3.41,6.49,6.62,9.29,10.24c0.9,1.16,0.52,3.37,0.56,5.11c0.13,5.24-0.51,10.62,0.49,15.69
		c0.78,3.97,0.26,6.45-2.71,9.04c-1.97,1.71-3.3,4.14-4.81,6.11C118.56,317.67,117.48,284.86,123.66,277.7z"/>
	<path class="st0" d="M143.58,567.84c12.02-11.13,13.04-22.34,2.8-35.3c10.07,2.99,15.94,8.76,19.06,17.18
		c5.16,13.9,1.7,18.81-12.96,18.9C149.93,568.63,147.38,568.18,143.58,567.84z"/>
	<path class="st0" d="M487.4,567.48c-7.7,2.29-14.52,0.7-21.29-0.45c-0.78-0.13-1.65-1.67-1.88-2.7
		c-2.41-10.78,4.34-28.15,19.61-31.09C474.46,545.56,475.09,556.9,487.4,567.48z"/>
	<path class="st0" d="M271.12,310.38c-5.03,6.41-9.54,11.55-18.74,9.55c-12.24-2.66-23.97-5.75-32.31-15.98
		c-0.63-0.77-0.75-1.97-1.1-2.97c1.18-0.18,2.68-0.91,3.5-0.45c14.62,8.28,30.55,9.76,46.88,9.38
		C269.67,309.92,269.99,310.08,271.12,310.38z"/>
	<path class="st0" d="M360.58,310.43c7.58-0.57,15.32-0.39,22.71-1.9c8.22-1.68,16.11-4.94,24.18-7.38c1.4-0.42,2.98-0.22,4.48-0.31
		c-0.63,1.36-0.99,2.96-1.94,4.03c-10,11.34-23.51,14.97-37.71,15.03c-4.22,0.02-8.47-5.19-12.71-8.01
		C359.93,311.41,360.25,310.92,360.58,310.43z"/>
	<path class="st0" d="M171.76,565.66c-1.99-8.77-3.78-16.67-5.58-24.63c7.7-2.32,20.58,6.8,20.71,15.63
		c0.02,1.15-1.04,2.89-2.07,3.39C180.41,562.19,175.82,563.96,171.76,565.66z"/>
	<path class="st0" d="M464.81,540.89c-1.85,8.12-3.62,15.92-5.6,24.6c-4.06-1.67-8.9-3.5-13.54-5.73c-0.89-0.43-1.52-2.51-1.41-3.76
		C445.03,547.26,456.79,539.06,464.81,540.89z"/>
	<path class="st0" d="M332.95,355.32c-7.21,3.17-26.38,3.25-34.55,0.28c2.69-5.94,5.92-7.93,12.03-7.61
		c2.99,0.16,5.99,0.18,8.98,0.09C327.34,347.83,327.81,348.03,332.95,355.32z"/>
	<path class="st0" d="M51.27,183.38c1.92-3.99,4.26-7.47,5.23-11.29c0.98-3.86,0.6-8.06,0.84-12.51c4.54,0.74,8.63,2.87,10.65,7.56
		c1.88,4.38,1.49,8.88-1.91,12.51C62.12,183.87,57.09,184.54,51.27,183.38z"/>
	<path class="st0" d="M580,183.38c-10.16,1.24-16.5-2.15-17.71-8.91c-1.35-7.56,2.66-12.77,12.57-15.25
		C571.44,168.39,575.17,175.96,580,183.38z"/>
	<path class="st0" d="M457.4,347.56c-14.28,4.37-27.36,10.89-38.99,20.59c0.52-0.81,0.92-1.75,1.58-2.42
		c8.43-8.5,16.95-16.92,25.31-25.48c2.18-2.23,3.78-2.63,6.17-0.26c2.1,2.08,4.73,3.62,7.12,5.4
		C458.2,346.12,457.8,346.84,457.4,347.56z"/>
	<path class="st0" d="M172.31,345.49c2.86-2.23,5.63-4.59,8.63-6.59c0.76-0.51,2.73-0.34,3.39,0.3c9.5,9.26,18.88,18.65,27.77,28.79
		c-11.38-9.59-24.25-16.17-38.41-20.3C173.23,346.95,172.77,346.22,172.31,345.49z"/>
	<path class="st0" d="M500.79,100.68c6.77,1.02,12.98,1.96,19.85,2.99c-0.41,4.01-1.52,8.99-6.18,10.96
		c-3.07,1.3-7.98,1.4-10.67-0.24C498.64,111.25,500.09,105.46,500.79,100.68z"/>
	<path class="st0" d="M110.62,103.61c6.39-0.94,12.62-1.86,19.11-2.82c1.93,4.15,1.56,10.08-1.46,12.99
		c-3.32,3.2-7.36,2.9-11.2,1.41C113.08,113.65,110.36,107.93,110.62,103.61z"/>
	<path class="st0" d="M271.12,444.41c-3.59-9.96-6.7-18.6-9.81-27.23c0.18-0.21,0.36-0.42,0.53-0.63
		c5.6,5.64,11.25,11.23,16.74,16.98c0.46,0.48,0.2,2.29-0.36,2.98C276.18,439.07,273.86,441.41,271.12,444.41z"/>
	<path class="st0" d="M358.85,444.6c-2.1-2.71-4.34-5.33-6.21-8.18c-0.53-0.8-0.47-2.76,0.14-3.42
		c5.23-5.68,10.65-11.19,16.01-16.76c0.3,0.27,0.6,0.54,0.9,0.8c-3.14,8.72-6.27,17.45-9.41,26.17
		C359.81,443.68,359.33,444.14,358.85,444.6z"/>
	<path class="st0" d="M91.52,593.45c-5.09-3.17-10.21-6.35-15.41-9.58c1.92-4.46,8.15-6.5,13.39-3.91
		C94.8,582.58,95.39,586.37,91.52,593.45z"/>
	<path class="st0" d="M539.24,593.61c-3.25-7.48-2.78-10.82,1.66-13.36c4.91-2.81,10.5-1.43,14.27,3.47
		C549.96,586.96,544.74,590.19,539.24,593.61z"/>
	<path class="st0" d="M237.03,319.73c6.53,1.37,13.06,2.73,20.89,4.37c-2.94,2.91-5.23,5.32-7.72,7.5
		c-0.49,0.43-2.06,0.31-2.62-0.17c-3.98-3.37-7.83-6.9-11.73-10.39C236.25,320.62,236.64,320.17,237.03,319.73z"/>
	<path class="st0" d="M394.73,320.81c-3.59,3.4-7.08,6.91-10.84,10.12c-0.76,0.65-2.86,0.68-3.71,0.09
		c-2.42-1.68-4.51-3.83-7.79-6.73c8.27-1.75,14.9-3.15,21.53-4.55C394.19,320.1,394.46,320.45,394.73,320.81z"/>
	<path class="st0" d="M146.22,302.21c-2.59,2.39-5.33,4.93-8.03,7.42c-3.19-5.05-3.51-11.27-0.32-17.09
		C140.65,295.76,143.29,298.81,146.22,302.21z"/>
	<path class="st0" d="M484.72,301.11c2.52-2.52,5.39-5.39,8.33-8.34c3.16,4.94,3.02,11.06-0.49,17.75
		C490.02,307.48,487.62,304.6,484.72,301.11z"/>
	<path class="st0" d="M558.06,430.81c3.68,0.2,7.28,0.21,10.82,0.7c0.92,0.13,2.09,1.63,2.31,2.68c0.15,0.71-0.97,2.06-1.84,2.55
		C564.79,439.29,559.41,436.57,558.06,430.81z"/>
	<path class="st0" d="M73.11,430.61c-1.6,6.03-6.58,8.61-11.33,6.19c-0.96-0.49-2.1-2-1.97-2.88c0.13-0.94,1.63-1.71,2.59-2.49
		c0.21-0.17,0.64-0.05,0.97-0.08C66.44,431.12,69.53,430.89,73.11,430.61z"/>
	<path class="st0" d="M82.01,454.01c-6.57,0.46-12.41,0.52-17.84-3.18C67.65,446.79,76.48,448.33,82.01,454.01z"/>
	<path class="st0" d="M567.2,450.42c-5.73,4.27-11.63,3.91-18.15,3.67C553.8,448.79,562.26,446.98,567.2,450.42z"/>
	<path class="st0" d="M455.82,229.96c0-6.17,0-11.26,0-16.39C461.54,214.78,461.73,221,455.82,229.96z"/>
	<path class="st0" d="M175.01,212.81c0,5.86,0,11.01,0,16.39C169.92,223.12,169.68,216.19,175.01,212.81z"/>
	<path class="st0" d="M321.82,344.57c-4.46,0-8.23,0-12.27,0C314.23,336.39,316.58,336.34,321.82,344.57z"/>
	<path class="st0" d="M71.54,112.61c1,7.57-1.86,11.03-8.87,10.79C65.66,119.76,68.36,116.48,71.54,112.61z"/>
	<path class="st0" d="M559.66,112.94c2.96,3.58,5.57,6.73,8.25,9.96C561.88,124.53,558.18,120.18,559.66,112.94z"/>
	<path class="st0" d="M545.62,229.06c3.35,0,6.7,0,10.05,0C552.37,230.62,549.13,233.34,545.62,229.06z"/>
	<path class="st0" d="M86.48,229.23c-4.37,4.43-7.67,1.12-11.03,0C78.76,229.23,82.06,229.23,86.48,229.23z"/>
	<path class="st0" d="M320.66,689.14c4.37-24.59,2.57-41.46-5.29-43.78c1.07,2.86,2.18,5.18,2.81,7.62
		c2.39,9.31,3.08,18.72,0.86,28.18c-1.85,7.85-9.39,10.09-15.84,4.79c-5.89-4.84-8.76-11.46-9.68-18.64
		c-2.58-20.01,4.88-36.12,20.12-48.97c2.52-2.12,4.49-1.23,6.7,0.28c11.73,7.98,17.55,19.5,18.71,33.21
		c0.58,6.87-0.01,13.98-1.16,20.8c-1.13,6.69-5.68,11.58-11.6,14.9C324.74,688.4,322.79,688.55,320.66,689.14z"/>
	<path class="st0" d="M297.18,685.04c-6.84,2.37-12.33,0.54-16.32-6.03c-8.06-13.28-9.4-27.48-4.87-42.28
		c0.32-1.04,0.7-2.05,1.06-3.07c-0.48-0.32-0.95-0.65-1.43-0.97c-1.06,1.59-2.63,3.04-3.09,4.79c-4.12,15.54-2.45,30.34,6.15,44.14
		c0.58,0.92,1.09,1.88,2.02,3.5c-9.71-2.01-16.52-6.71-20.86-14.82c-10.1-18.86-2.99-47.93,14.53-60.18
		c2.93-2.05,4.98-2.44,7.6,0.56c4.59,5.26,9.59,10.16,14.39,15.23c1.92,2.03,2.19,3.95,0.68,6.68
		C287.43,649.89,286.73,667.32,297.18,685.04z"/>
	<path class="st0" d="M350.12,685.37c11.9-20.61,14.1-48.03,4.01-52.43c0.24,1.34,0.28,2.39,0.61,3.33
		c4.92,14.21,3.41,27.92-3.56,41.01c-3.98,7.48-9.05,9.81-15.71,8.18c-0.08-0.31-0.33-0.74-0.21-0.91
		c11.84-17.13,8.75-34.77,1.2-52.19c-2.01-4.64-1.96-7.46,1.73-10.75c3.84-3.42,7.46-7.14,10.84-11.02
		c2.39-2.75,4.46-2.69,7.24-0.77c9.23,6.37,14.77,15.22,17.51,25.9c2.98,11.61,2.95,23.08-2.48,34.1
		C367.11,678.32,359.97,682.88,350.12,685.37z"/>
	<path class="st0" d="M315.16,718.67c-0.08-1.05-0.16-2.1-0.25-3.16c-0.37-4.44-1.08-8.88-1.01-13.31c0.06-4.12,1.51-7.94,5.88-9.57
		c4.4-1.64,8.24,0.07,11.56,2.74c6.68,5.36,7.98,15.8,2.91,24.05c-4.98,8.11-12.28,12.46-21.98,12.11
		c-7.91-0.29-14.04-3.75-17.78-10.87c-4.17-7.93-1.99-19.75,4.65-25.73c4.05-3.65,8.66-4.56,14.24-2.67
		c-3.2,8.03-4.11,16.1-1.38,24.26c0.34,1.01,1.4,1.79,2.13,2.67C314.48,719.01,314.82,718.84,315.16,718.67z"/>
	<path class="st0" d="M330.92,690.13c5.79-1.36,11.6-1.35,15.87,2.75c3.92,3.75,6.7,8.69,10.23,13.44
		c1.89-7.66-4.35-11.75-8.21-17.05c3.65-1.06,6.93-2.36,10.32-2.87c1.93-0.29,4.44,0.17,6.04,1.25c10.31,6.95,9.83,22.55-0.89,29.04
		c-5.9,3.57-12.47,4.67-19.25,3.37c-3.78-0.73-5.95-2.35-4.96-7.28C341.87,703.73,338.59,696.15,330.92,690.13z"/>
	<path class="st0" d="M300.3,689.37c-9.1,7.75-11.87,16.51-10.78,26.77c0.12,1.1-1.38,2.99-2.56,3.5
		c-10.31,4.41-25.33-3.06-28.17-13.84c-1.71-6.47,1.73-15.7,7.83-18.42c2.61-1.17,6.28-0.15,9.44,0.18c1.94,0.21,3.81,1,6.05,1.63
		c-2.29,2.89-4.67,5.4-6.43,8.28c-1.6,2.63-3.7,5.55-0.59,9.92C278.46,694.66,286.16,688.64,300.3,689.37z"/>
	<path class="st0" d="M251.99,663.29c-7.14-12.95-7.04-26.17-0.12-39.63c-0.56-0.27-1.12-0.54-1.68-0.81
		c-1.12,1.45-2.61,2.74-3.29,4.38c-5.82,14.15-4.07,27.62,4.01,40.42c0.67,1.05,1.44,2.04,2.17,3.05c-0.34,0.36-0.68,0.72-1.02,1.08
		c-2.72-2.43-5.83-4.54-8.08-7.34c-10.78-13.44-8.82-43.23,3.26-55.45c3.3-3.33,5.76-3.99,9.39-0.24c6.05,6.26,6.1,5.97,2,14.19
		c-5.49,11-7.39,22.69-5.84,34.92c0.22,1.77,0.46,3.53,0.68,5.29C252.98,663.2,252.48,663.24,251.99,663.29z"/>
	<path class="st0" d="M380.24,623.49c5.67,13.73,5.96,26.91-2.38,39.72c0-1.22-0.16-2.46,0.02-3.65
		c2.24-14.55-0.18-28.21-8.16-40.65c-1.82-2.83-1.84-4.75,0.94-6.66c0.82-0.56,1.5-1.32,2.24-1.98c6.52-5.81,7.63-6.01,12.68,1.01
		c2.93,4.08,5.27,8.95,6.54,13.81c2.59,9.95,2.64,20.14-0.28,30.12c-2.09,7.14-6.39,12.61-13.44,15.86
		c4.58-7.53,8.51-15.26,8.87-24.21C387.61,638.31,387.18,629.93,380.24,623.49z"/>
	<path class="st0" d="M248.13,689.55c7.34-9.73,10.98-11.23,17.56-6.92c-0.55,0.76-0.96,1.69-1.67,2.21
		c-4.86,3.52-7.68,8.35-8.43,14.16c-0.46,3.57-2.3,4.36-5.33,4.27c-7.4-0.23-11.92-4.57-14.87-10.76
		c-2.94-6.15-3.64-12.51,0.57-18.44c2.56-3.61,6.38-4.21,10.23-2.49c3.12,1.4,5.94,3.46,9.28,5.46c-2.28,1.97-4.67,3.49-6.27,5.61
		c-1.37,1.81-1.85,4.3-2.72,6.49C247.03,689.27,247.58,689.41,248.13,689.55z"/>
	<path class="st0" d="M366.6,682.19c4.93-3.78,7.25-2.91,16.55,7.4c1.42-3.31,1.42-3.31-7.33-12.64c2.95-1.81,5.8-3.73,8.8-5.36
		c3.56-1.94,8.27-0.8,10.59,2.72c3.98,6.04,3.33,12.37,0.21,18.5c-3.01,5.93-7.26,10.33-14.57,10.41c-2.98,0.03-4.35-0.84-5.55-4.09
		C373.16,693.3,369.65,687.96,366.6,682.19z"/>
	<path class="st0" d="M292.87,616.81c9.64-9.11,33.35-10.5,45.39-0.04c-2.03,2.26-4.06,4.53-6.21,6.91
		c-4.17-3.08-8.15-5.98-12.08-8.94c-2.7-2.04-5.03-1.86-7.49,0.56c-3.65,3.58-7.52,6.94-11.64,10.71
		C298.16,622.91,295.51,619.85,292.87,616.81z"/>
	<path class="st0" d="M334.89,609.51c3.29-1.15,4.7-8.03,9.54-3.23c0.77,0.76,0.49,3.57-0.31,4.74
		C340.54,616.19,337.88,611.67,334.89,609.51z"/>
	<path class="st0" d="M297.19,609.24c-4.02,2.76-6.72,6.7-10.29,1.75c-0.82-1.15-1.16-3.99-0.42-4.7
		C291.18,601.77,292.83,608.02,297.19,609.24z"/>
	<path class="st0" d="M267.59,603.99c2.52,2.52,3.79,4.37,0.75,6.91c-3.71,3.09-4.74-0.5-7.47-2.65
		C263.41,606.64,265.49,605.32,267.59,603.99z"/>
	<path class="st0" d="M369.32,608.89c-1.93,1.47-2.96,5.19-6.65,1.96c-2.04-1.79-2.77-4.34-0.64-5.17c2.03-0.8,4.97,0.71,7.5,1.21
		C369.47,607.56,369.39,608.22,369.32,608.89z"/>
</g>
</svg>
