<?xml version="1.0" encoding="utf-8"?>
<!-- Generator: Adobe Illustrator 27.1.1, SVG Export Plug-In . SVG Version: 6.00 Build 0)  -->
<svg version="1.1" id="Layer_1" xmlns="http://www.w3.org/2000/svg" xmlns:xlink="http://www.w3.org/1999/xlink" x="0px" y="0px"
	 viewBox="0 0 158.1 208.9" style="enable-background:new 0 0 158.1 208.9;" xml:space="preserve">
<style type="text/css">
	.st0{fill:#FFFFFF;}
</style>
<g>
	<path class="st0" d="M0,113.3C-0.2,99,5.3,86.7,13.4,75.4c1.9-2.7,2.5-5,1.7-8.3c-3.5-15.5,2.5-27.9,13.5-38.3
		c11.7-11,25.8-18.1,39.7-25.8C76.1-1.2,82.4-0.9,90,3.2c13.7,7.4,27.5,14.4,38.9,25.1c9.5,8.8,15.8,19.2,14.9,32.9
		c0,0.7,0.1,1.5-0.2,2.1c-2.4,6-0.2,10.6,3.3,15.6c17.8,25.5,12.1,54.8-2.2,76.1c-1.2,1.8-2.1,3.9-2.6,6
		c-3,13.2-12.1,20.2-24.4,23.7c-2.6,0.7-4,1.8-5.1,4.4c-4.7,10.8-13.6,16.6-24.7,18.9c-13.9,2.8-26.7,0-36.9-10.5
		c-2.5-2.5-4.3-5.8-5.9-9.1c-1-2.1-2.1-3-4.2-3.5c-10-2.5-18.1-7.6-22.9-17.2c-0.5-1-1.2-2.1-1.3-3.3c-0.5-5.2-3.5-9.3-6.1-13.6
		C3.7,139.3,0.2,126.7,0,113.3z M100.5,73.6c2.4-2.2,4.8-4.1,6.9-6.3c6-5.8,6.2-10.6-0.5-15.5c-8.3-6.2-17.4-11.5-26.2-17.1
		c-0.9-0.5-2.7-0.6-3.5,0c-8.8,5.6-17.8,10.9-26.2,17.1c-6.7,4.9-6.4,10-0.2,15.8c2.2,2.1,4.5,4,7.2,6.4c-1.2,1-2.4,1.7-3.2,2.6
		c-6,7-12.3,13.9-17.8,21.3c-5.8,7.8-6.4,16.8-3.4,25.9c5.9,18.5,18.8,29.3,37.6,32.4c18.6,3,34.6-2.9,45.9-18.2
		c10.9-14.7,12.7-29.9,0.4-45.3c-1.4-1.7-2.7-3.6-4.2-5.2C109.2,82.9,104.9,78.4,100.5,73.6z M58.8,171.4c-0.1,1.7-0.1,3.3-0.3,4.9
		c-0.9,6.5,2,11,7.4,14c8.4,4.7,17.1,4.8,25.6,0.3c5.7-2.9,8.9-7.5,8-14.3c-0.2-1.7,0-3.4,0-5.5c3.6,0,6.9,0.3,10.2-0.1
		c6.5-0.7,12.3-3,16.1-8.8c2.3-3.5,2.2-6.9,0.1-10c-24.9,26.4-68,27.2-93.9-0.2c-1.9,3.6-1.7,7,0.5,10.4c2.8,4.4,7.1,6.9,12.1,7.9
		C49,170.9,53.7,170.9,58.8,171.4z M122,74.2c7.9,8.9,15.2,18.3,18.1,30.2c2.9,11.9-0.6,23.2-5.3,35.1c1.4-0.7,1.8-0.8,1.9-1.1
		c5.1-10.6,7.7-21.8,5.3-33.5c-2.2-11-8.4-19.8-15.5-28.1c-1.7-2-2.1-3.5-1-5.9c5.4-12,3.9-20.5-5.4-29.8
		c-11.4-11.4-25.5-18.6-39.9-25.4c-0.7-0.3-1.9-0.3-2.6,0c-14.1,6.6-27.9,13.7-39.2,24.7c-10.3,10-11.7,18.2-5.9,31.2
		c0.9,1.9,0.6,3.1-0.7,4.7c-2.9,3.5-5.7,7.2-8.3,11c-11.1,16-10.7,32.8-3.1,49.9c0.3,0.7,0.9,1.3,1.4,1.9c0.5,0,0.9-0.1,1.4-0.1
		c-12.9-25.3-5.3-46.3,12.1-64c-1.6-5.4-3.7-9.9-4.3-14.5c-1.1-8.5,3.9-14.5,9.6-19.8c10.7-10,23.5-16.8,36.7-22.7
		c1.1-0.5,2.8-0.2,3.9,0.4c7.9,4.2,16.1,7.9,23.4,12.9c6.4,4.4,12.3,9.8,17.6,15.5c5.2,5.6,5.8,12.7,3.1,19.8
		C124.6,69,123.3,71.4,122,74.2z"/>
	<path class="st0" d="M61.3,102.1c-1.7-1.1-3.3-2.1-5.2-3.4c4.3-3.8,7.1-6.3,10-8.9c-6,0.6-7.1-3.4-8-8.1c2.7,0,5.3,0,8.7,0
		c-3.6-4-6.6-7.3-10.1-11.1c5.2,0,9.9,0,14.8,0c-1.5-3.4-2.8-6.4-4.1-9.4c0.3-0.2,0.6-0.5,0.9-0.7c2,4.1,4.7,7.4,9.5,7.5
		c4.8,0.1,7.8-2.7,9.8-6.8c0.3,0.2,0.6,0.3,1,0.5c-1.2,2.8-2.4,5.5-3.7,8.7c2.1,0,4.5,0,6.9,0c2.4,0,4.8,0,8.1,0
		c-3.1,3.4-5.5,6.2-8.1,8.8c-2.1,2-3.1,4.2-2.8,7.2c0.3,2.4-0.1,5,0.1,7.4c0.1,0.7,1.2,1.7,1.8,1.7c0.7,0,1.8-1,1.9-1.7
		c0.2-2.3,0.5-4.8,0-7c-1-5.9,2.3-9.4,6.6-13.3c0,1.8,0,3,0,4.3c0,21.3,0,42.6,0,63.9c0,2.5-0.2,4.9,3.4,5.4c-0.3,0.2-0.7,0.6-1,0.5
		c-2.5-0.6-5.1-0.9-7.4-2c-0.9-0.4-1.5-2.6-1.5-3.9c-0.1-12.8-0.1-25.7-0.1-38.5c0-1.4,0-2.8,0-4.3c-1.4,0-2.5,0-3.7,0
		c-0.1,1.1-0.2,2.1-0.2,3.2c0,12.2,0,24.5,0,36.7c0,2.6,0.2,4.8,3.9,4.8c-3.2,1.8-5,0.7-5.1-2.8c-0.1-4.2,0-8.4,0-12.9
		c-1.5,0-2.7,0-4.3,0c0,3.8-0.2,7.5,0.1,11.2c0.1,1.3,1.8,2.4,2.7,3.6c-2.4,0.9-4,0-4.1-3.2c-0.1-3.7,0-7.5,0-11.5
		c-1.4,0-2.6,0-4.3,0c1.4,4.4-2.6,9.8,3.1,13.1c-2.5,1.2-4.2,0.2-4.4-3c-0.2-3.3,0-6.6,0-9.9c-2.6-1-3.6-0.3-3.5,2.3
		c0.1,2.3,0.2,4.7-0.3,7c-0.9,4.4-5.2,6.9-9.4,5.6c-3.9-1.2-5.9-5.7-4-10.6c0.1,1.8,0.1,2.6,0.2,3.3c0.4,3.6,3.1,6.1,6.2,6.1
		c3.3-0.1,5.7-2.9,5.7-6.7c0-2.2,0-4.4,0-6.4c-0.8,2.9-1.6,6-2.7,9.1c-0.1,0.4-1.7,0.2-2.9-0.1c5.9-2,2.4-6.6,3.7-10.5
		c-2.9,1.1-5,1.9-7.5,2.8c-0.7-1.8-1.3-3.4-2-5.2c2.4-1.1,4.6-2.2,6.4-3.1c-1.2-1.5-3-2.9-3.3-4.5c-0.2-0.8,2.2-2.2,4-3.7
		c0-0.1,0-1.1,0-1.6c-2.3,0-4.6,0.5-6.5-0.2c-1.1-0.4-2.5-2.7-2.3-3.9C58.7,105.9,60.2,104,61.3,102.1c1.9,0.5,3.8,1,5.5,1.6
		c0-2,0-4.1,0-6.9C64.7,98.9,63,100.5,61.3,102.1z M98,144.6c0-19.1,0-38.1,0-57.2c0-2.9-1.6-2.4-3.3-2c-0.1,0.5-0.3,0.7-0.3,0.9
		c0,18.5,0,37-0.1,55.4C94.3,144.2,95.5,145,98,144.6z M77.9,82.5c0,3.5,0.1,6.7,0,9.8c-0.2,3.1,1,4,4,2.9c0-4.2,0-8.3,0-12.7
		C80.6,82.5,79.5,82.5,77.9,82.5z M83.5,82.4c0,4.3,0,8.5,0,12.9c1.3,0,2.5,0,3.9,0c0-4.4,0-8.6,0-12.9C86,82.4,84.9,82.4,83.5,82.4
		z M75,96c0.4-0.3,0.8-0.6,1.2-0.9c0-4.2,0-8.3,0-12.4c-3.1-0.4-3.2-0.4-3.3,1.9c-0.1,2.9-0.2,5.9,0.1,8.7
		C73.1,94.2,74.3,95.1,75,96z M62.9,112.6c1.6-2.3,3.3-3.7,3.1-4.8c-0.2-1.4-2-2.5-3.1-3.8c-1.1,1.2-2.9,2.4-3.1,3.8
		C59.6,108.9,61.3,110.3,62.9,112.6z M83.3,116.4c0,1.9,0.1,3.4,0,4.9c-0.4,3.3,1.1,4.1,4.2,3.1c0-2.6,0-5.2,0-8
		C86.1,116.4,84.9,116.4,83.3,116.4z M81.8,124.6c0-2.9,0-5.5,0-8.1c-1.3,0-2.4,0-3.7,0c0,2.8,0,5.4,0,8.1
		C79.4,124.6,80.4,124.6,81.8,124.6z M81.8,105.2c0-2.3,0-4.3,0-6.6c-1.4,0.1-2.5,0.1-3.5,0.2C77.3,105.2,77.5,105.6,81.8,105.2z
		 M83.5,98.8c0,2.3,0,4.3,0,6.4c1.4,0,2.6,0,3.9,0c0-2.2,0-4.3,0-6.4C86,98.8,84.9,98.8,83.5,98.8z M73.4,116.5
		c-1.5,6.6-0.7,8.6,2.8,7.7c0-2.5,0-5,0-7.7C75.1,116.5,74.3,116.5,73.4,116.5z M76.2,98.3c-1.4,0.4-3,0.7-3,1.1
		c-0.2,1.8-0.1,3.7,0.2,5.5c0.1,0.3,1.7,0.4,2.9,0.6C76.2,103,76.2,101,76.2,98.3z M61,99.7c5.8-3.8,6.4-4.7,5.8-7.8
		C60.7,95.7,59.4,97.4,61,99.7z M83.4,113.2c1.6,0,2.8,0,4,0c0-1.6,0-3,0-4.4c-1.5,0-2.8,0-4,0C83.4,110.4,83.4,111.7,83.4,113.2z
		 M78.2,108.6c0,1.8,0,3.2,0,4.9c1.4-0.1,2.5-0.1,3.6-0.2c0-1.7,0-3.2,0-4.6C80.5,108.6,79.4,108.6,78.2,108.6z M76.2,108.3
		c-1.2,0.4-2.7,0.4-3,1c-0.5,0.9-0.4,2.4,0.1,3.3c0.3,0.6,1.8,0.6,3,0.9C76.2,111.6,76.2,110.2,76.2,108.3z M66.8,123.5
		c-1.8,0.8-3.5,1.5-5.3,2.3c0.4,0.9,0.6,1.6,1,2.5C64.4,127,68,127.7,66.8,123.5z"/>
	<path class="st0" d="M78.7,49c1.5,3,3.2,5.9,4.4,9c1,2.7,0.8,5.7-2,7.1c-1.7,0.8-4.5,0.8-6-0.1c-2.6-1.5-3-4.4-1.7-7.1
		c1.4-3,2.8-5.9,4.3-8.8C78,49,78.3,49,78.7,49z"/>
	<path class="st0" d="M63.2,121.8c-2.5-0.3-4.5-1.1-4.6-4c0-2.9,2.1-3.8,4.7-4.1c-0.7,1.4-1.8,2.6-1.9,3.9
		C61.5,118.8,62.5,120.2,63.2,121.8z"/>
</g>
</svg>
