<svg xmlns="http://www.w3.org/2000/svg" viewBox="0 0 204.33 204.33">
    <defs>
        <style>.cls-1{fill:none;}.cls-2{fill:#231f20;}</style>
    </defs>
    <g id="Layer_2" data-name="Layer 2">
        <g id="Layer_1-2" data-name="Layer 1">
            <path d="M102.17,0A102.17,102.17,0,1,0,204.33,102.17,102.17,102.17,0,0,0,102.17,0Zm0,196.22a94.06,94.06,0,1,1,94.06-94A94,94,0,0,1,102.17,196.22Z"/>
            <path class="cls-1" d="M135.05,160.47a34.73,34.73,0,0,0,3.71,5.91c1.65,1.51,3.45,2.44,6.68,1.22s5.4-3.52,7.77-4.89,7.19-2.44,8.85-1.22c-1.23-1.65-.15-6.47,1.22-8.85s3.67-4.52,4.89-7.76.29-5-1.22-6.69a36.07,36.07,0,0,0-6.09-3.81A67.41,67.41,0,0,1,135.05,160.47Z"/>
            <path class="cls-1" d="M120.15,37.67a35.09,35.09,0,0,0,1.55-6.78c-.1-2.24-.71-4.17-3.86-5.6s-6.31-1.32-9-2-6.82-3.36-7.12-5.39c-.31,2-4.48,4.68-7.12,5.39s-5.8.61-9,2-3.77,3.35-3.87,5.59a36.76,36.76,0,0,0,1.61,7,66.73,66.73,0,0,1,36.71-.21Z"/>
            <path class="cls-1" d="M84.18,166.66a35.14,35.14,0,0,0-1.55,6.79c.11,2.23.72,4.16,3.87,5.59s6.3,1.32,9,2,6.81,3.36,7.12,5.39c.3-2,4.47-4.68,7.12-5.39s5.79-.61,9-2,3.76-3.36,3.86-5.59c0-1-.74-4-1.61-7a66.49,66.49,0,0,1-36.71.21Z"/>
            <path class="cls-1" d="M37.67,84.18a35.09,35.09,0,0,0-6.78-1.55c-2.24.11-4.17.72-5.6,3.87s-1.32,6.3-2,9-3.36,6.81-5.39,7.12c2,.3,4.68,4.47,5.39,7.12s.61,5.79,2,8.94,3.36,3.77,5.6,3.87a36,36,0,0,0,7-1.61,66.73,66.73,0,0,1-.21-36.71Z"/>
            <path class="cls-1" d="M166.66,120.15a35.14,35.14,0,0,0,6.79,1.55c2.23-.1,4.16-.71,5.59-3.86s1.32-6.31,2-9,3.36-6.82,5.39-7.12c-2-.31-4.68-4.48-5.39-7.12s-.61-5.8-2-9-3.36-3.77-5.59-3.87a37,37,0,0,0-7,1.61,66.73,66.73,0,0,1,.21,36.71Z"/>
            <path class="cls-1" d="M69.29,43.86A35.39,35.39,0,0,0,65.58,38c-1.66-1.51-3.45-2.44-6.69-1.22s-5.4,3.52-7.77,4.89-7.19,2.44-8.84,1.22c1.22,1.66.14,6.47-1.23,8.85s-3.67,4.53-4.88,7.76-.29,5,1.22,6.69A35.65,35.65,0,0,0,43.48,70,67.48,67.48,0,0,1,69.29,43.86Z"/>
            <path class="cls-1" d="M43.86,135A35.25,35.25,0,0,0,38,138.76c-1.51,1.65-2.44,3.45-1.22,6.68s3.52,5.4,4.89,7.77,2.44,7.19,1.22,8.84c1.66-1.22,6.48-.14,8.85,1.23s4.53,3.67,7.76,4.89,5,.29,6.69-1.22A36.07,36.07,0,0,0,70,160.86,67.37,67.37,0,0,1,43.86,135Z"/>
            <path class="cls-1" d="M160.47,69.29a35.39,35.39,0,0,0,5.91-3.71c1.51-1.66,2.44-3.45,1.22-6.69s-3.52-5.39-4.89-7.77-2.44-7.19-1.22-8.84c-1.65,1.22-6.47.14-8.85-1.23s-4.53-3.66-7.76-4.89-5-.28-6.69,1.23a35.65,35.65,0,0,0-3.81,6.09A67.41,67.41,0,0,1,160.47,69.29Z"/>
            <path d="M138.19,37.39c1.65-1.51,3.45-2.45,6.69-1.23s5.39,3.53,7.76,4.89,7.2,2.45,8.85,1.23c-1.22,1.65-.14,6.47,1.22,8.84s3.67,4.53,4.89,7.77.29,5-1.22,6.69a35.39,35.39,0,0,1-5.91,3.71q1.25,2.19,2.33,4.49c4-2.17,8.58-4.73,9.61-5.86,1.94-2.12,3.14-4.43,1.57-8.58s-4.52-6.93-6.28-10-3.14-9.23-1.57-11.35c-2.12,1.57-8.3.18-11.35-1.57s-5.82-4.71-10-6.28-6.46-.37-8.58,1.57c-1.13,1-3.73,5.62-5.91,9.69q2.07,1,4.06,2A35.65,35.65,0,0,1,138.19,37.39Z"/>
            <path d="M185.84,92.9c-.91-3.4-.78-7.44-2.61-11.49s-4.31-4.83-7.18-5c-1.53-.07-6.59,1.34-11,2.67.52,1.42,1,2.86,1.4,4.32a37,37,0,0,1,7-1.61c2.23.1,4.17.71,5.59,3.87s1.32,6.3,2,9,3.36,6.81,5.39,7.12c-2,.3-4.68,4.47-5.39,7.12s-.61,5.79-2,9-3.36,3.76-5.59,3.86a35.14,35.14,0,0,1-6.79-1.55c-.46,1.63-1,3.25-1.53,4.83,4.39,1.32,9.4,2.71,10.92,2.64,2.87-.13,5.35-.91,7.18-5s1.7-8.09,2.61-11.49,4.31-8.74,6.92-9.13C190.15,101.65,186.75,96.29,185.84,92.9Z"/>
            <path d="M167,138.19c1.51,1.65,2.44,3.45,1.22,6.69s-3.52,5.39-4.89,7.76-2.45,7.2-1.22,8.85c-1.66-1.22-6.48-.14-8.85,1.22s-4.53,3.67-7.77,4.89-5,.29-6.68-1.22a34.73,34.73,0,0,1-3.71-5.91q-2.2,1.25-4.5,2.33c2.17,4,4.74,8.58,5.86,9.61,2.12,1.94,4.43,3.14,8.59,1.57s6.92-4.52,10-6.28,9.24-3.14,11.36-1.57c-1.57-2.12-.19-8.3,1.57-11.35s4.71-5.82,6.27-10,.37-6.46-1.57-8.58c-1-1.13-5.62-3.73-9.68-5.91q-1,2.07-2,4.06A36.07,36.07,0,0,1,167,138.19Z"/>
            <path d="M122.5,173.45c-.1,2.23-.71,4.17-3.86,5.59s-6.31,1.32-9,2-6.82,3.36-7.12,5.39c-.31-2-4.48-4.68-7.12-5.39s-5.8-.61-9-2-3.76-3.36-3.87-5.59a35.14,35.14,0,0,1,1.55-6.79c-1.63-.45-3.25-1-4.83-1.53-1.32,4.39-2.71,9.4-2.64,10.92.13,2.87.92,5.35,5,7.18s8.09,1.7,11.49,2.61,8.75,4.31,9.14,6.92c.39-2.61,5.74-6,9.14-6.92s7.44-.78,11.48-2.61,4.83-4.31,5-7.18c.07-1.53-1.33-6.59-2.67-11-1.41.52-2.86,1-4.32,1.4C121.76,169.44,122.55,172.44,122.5,173.45Z"/>
            <path d="M66.14,167c-1.65,1.51-3.45,2.44-6.69,1.22s-5.39-3.53-7.76-4.89-7.19-2.45-8.85-1.23c1.22-1.65.15-6.47-1.22-8.84s-3.67-4.53-4.89-7.77-.29-5,1.22-6.68A35.25,35.25,0,0,1,43.86,135q-1.24-2.19-2.33-4.49c-4.05,2.17-8.58,4.74-9.61,5.86-1.94,2.13-3.13,4.43-1.57,8.59s4.53,6.92,6.28,10,3.14,9.24,1.57,11.36c2.12-1.57,8.31-.19,11.35,1.57s5.82,4.7,10,6.27,6.46.37,8.58-1.57c1.14-1,3.73-5.62,5.91-9.68q-2.07-1-4.06-2A36.07,36.07,0,0,1,66.14,167Z"/>
            <path d="M30.89,122.5c-2.24-.1-4.17-.71-5.6-3.87s-1.32-6.3-2-8.94-3.36-6.82-5.39-7.12c2-.31,4.68-4.48,5.39-7.12s.61-5.8,2-9,3.36-3.76,5.6-3.87a35.09,35.09,0,0,1,6.78,1.55c.46-1.63,1-3.24,1.53-4.82-4.39-1.33-9.4-2.72-10.92-2.65-2.87.13-5.35.91-7.18,5s-1.69,8.1-2.61,11.49-4.31,8.75-6.92,9.14c2.61.39,6,5.74,6.92,9.13s.78,7.45,2.61,11.49,4.31,4.83,7.18,5c1.53.07,6.59-1.34,11-2.67-.52-1.41-1-2.86-1.41-4.32A36,36,0,0,1,30.89,122.5Z"/>
            <path d="M37.39,66.14c-1.51-1.65-2.45-3.45-1.22-6.69s3.52-5.39,4.88-7.76,2.45-7.19,1.23-8.85c1.65,1.22,6.47.15,8.84-1.22s4.53-3.67,7.77-4.89,5-.29,6.69,1.22a35.39,35.39,0,0,1,3.71,5.91q2.19-1.24,4.49-2.33c-2.17-4.05-4.73-8.58-5.86-9.61-2.12-1.94-4.43-3.13-8.58-1.57s-6.92,4.53-10,6.28S40.14,39.77,38,38.2c1.57,2.12.18,8.31-1.57,11.35s-4.71,5.82-6.28,10S29.8,66,31.74,68.11c1,1.13,5.62,3.72,9.69,5.9q1-2.07,2-4.06A35.65,35.65,0,0,1,37.39,66.14Z"/>
            <path d="M81.83,30.89c.1-2.24.71-4.17,3.87-5.59s6.3-1.33,9-2,6.81-3.36,7.12-5.39c.3,2,4.47,4.68,7.12,5.39s5.79.61,9,2,3.76,3.36,3.86,5.6a35.09,35.09,0,0,1-1.55,6.78c1.63.46,3.25,1,4.83,1.54,1.32-4.4,2.71-9.41,2.64-10.93-.13-2.87-.91-5.35-5-7.18s-8.09-1.69-11.49-2.61-8.74-4.31-9.13-6.91c-.39,2.61-5.75,6-9.14,6.91s-7.44.78-11.49,2.61-4.83,4.31-5,7.18c-.07,1.53,1.34,6.6,2.67,11,1.42-.52,2.86-1,4.32-1.41A36.76,36.76,0,0,1,81.83,30.89Z"/>
            <path d="M102.17,37.38A64.79,64.79,0,1,0,167,102.17,64.78,64.78,0,0,0,102.17,37.38Zm0,125.52a60.73,60.73,0,1,1,60.73-60.73A60.73,60.73,0,0,1,102.17,162.9Z"/>
            <path d="M102.17,163.63a61.47,61.47,0,1,1,61.47-61.46A61.53,61.53,0,0,1,102.17,163.63Zm0-121.46a60,60,0,1,0,60,60A60.07,60.07,0,0,0,102.17,42.17Z"/>
            <path class="cls-2" d="M148.73,113V91.72H138.11a8.33,8.33,0,0,0,5,5s0,1.76.12,3.14c-3.33-.12-7,.63-8.23,2.46-.86,1.31-1,5.34,3.08,8.48,2.69,2.07,9.24,4,13.26,4.21A5.6,5.6,0,0,1,148.73,113Zm-5.28-8-5.09,2.89-.94-1.39,6-4Z"/>
            <path class="cls-2" d="M143.45,83.48l-2.64,3.21,3.58,3.39V88.76l2.46-2.45Zm.38,4-.94-.94.82-1,.87.82Z"/>
            <path class="cls-2" d="M99.74,129.86s-3.64,0-5.51.2S86.66,133,84,132.82s-5.51-2.46-7.08-5.22c.59,2.76,2.69,7.23,6.39,8.86a13.66,13.66,0,0,0,6.79,1.37c1.87,0,7.37-.68,9.64-2.36S99.74,129.86,99.74,129.86Z"/>
            <path class="cls-2" d="M100.43,112.16,92.58,112l0,1s-6.84-.25-9.59-.25-5.52.13-6.35,2.71a3.34,3.34,0,0,0,.94,3.79c.69.58,1.75.87,4.21,1.07,1.56.12,9.51,0,10.69-.15-2.62-.26-6.69-.78-8.26-1.56s-1.87-1.38-1.58-2.27,2.08-1.28,3.25-1.47a38.38,38.38,0,0,1,6.79,0V116s-4.24-.29-5.61-.2-2.68.5-2.66,1.08c0,1.08,3.25,1.58,5.51,1.87a68.84,68.84,0,0,0,8.16.59v-5.11h2.56Z"/>
            <path class="cls-2" d="M100.43,128.49a38.42,38.42,0,0,0-6.3.2c-2.06.39-7,2.95-9.74,2.65s-6.73-3.25-7.42-6c1.28-3,3.77-3.51,5.75-3.93,2.81-.59,17.31-.3,17.31-.3l.1,2.86s-6.1-.2-7.77,0A28.6,28.6,0,0,0,86,125.54c-1.18.59-4.63,1-5.32.2.1,1.77,1.19,1.67,1.87,1.86s2.47-.29,4.43-.88a36.39,36.39,0,0,1,5.61-1.57,69.2,69.2,0,0,1,7.57.24Z"/>
            <path class="cls-2" d="M102.64,55s.15-1.86-.59-2.06-.88.49-1.13.69c.35-.75.78-1.23,1.28-1.2s.44-1,.09-1.29-1-1-1.2-.94a2.26,2.26,0,0,0,.53-1.73,11,11,0,0,1-.38-1.47c-.28.86-.61,2.28-1,2.46s-.05.93.13,1.13a1.49,1.49,0,0,1,0,1.64c-.47.48-.93.55-1.09,1.07s-.15,1.66.14,1.88a16.06,16.06,0,0,0,3.21.07Z"/>
            <path class="cls-2" d="M126.2,148.26V71a21.09,21.09,0,0,1-4.13,5.24C120,78,115.28,80,113.21,80.1c.1,1.47,0,5.31,0,5.31l-1.56.11V88c1.73-.08,4.23-.12,7-.06V83.05s1.15-.3,1.45-.89c-.1,2.07,0,65.71,0,65.71s7.25.61,10,3.78A9.06,9.06,0,0,0,126.2,148.26Z"/>
            <path class="cls-2" d="M111.65,88v-2.5c0-3.18,0-5.48,0-6.5-.81,0-3.07.19-5.41.37l0,6.5v4.35l5.39-.12C111.66,89.39,111.65,88.7,111.65,88Z"/>
            <polygon class="cls-2" points="78.49 104.78 97.87 104.78 91.08 106.97 84.1 106.95 78.49 104.78"/>
            <polygon class="cls-2" points="98.19 111.18 78.79 111.18 84.1 108.33 90.98 108.33 98.19 111.18"/>
            <path class="cls-2" d="M84.1,107l-5.61-2.17a2.79,2.79,0,0,0-2.26,3,3.43,3.43,0,0,0,2.56,3.44c.54-.27,5.31-2.85,5.31-2.85Z"/>
            <path class="cls-2" d="M90.62,58.33C91.06,60.55,94,66,95.41,67s2.51,1.77,4,1.91a25.26,25.26,0,0,0,5.32-.07,5.89,5.89,0,0,0,2.87-1.7c.44-.52,4-5,4.43-9.51-1.33,2.21-5.24,7.15-9.81,7.37S92.68,61.21,90.62,58.33Z"/>
            <path class="cls-2" d="M101.17,55.08c-1.48.07-5.09,1.11-5.09,4.43s3.68,5.09,5.45,5.09,5.1-1.55,5-5.09S102.86,55,101.17,55.08Zm.14,6.57c-.88.08-1.45-.61-1.47-1.55,0-1.15.49-1.69,1.45-1.69s1.35,1,1.35,1.62A1.63,1.63,0,0,1,101.31,61.65Z"/>
            <path class="cls-2" d="M118.65,148l.07-58.91h-5.46v1l-1.6,0-5.39.12-1.53,0c0,.87,0,1.78,0,2.71l1.54,0,5.39-.14,1.6,0s.08,54,.08,54.74a27.55,27.55,0,0,1,10,4.18A15.36,15.36,0,0,0,118.65,148Z"/>
            <path class="cls-2" d="M98.19,104.73h.08V99.79a7.41,7.41,0,0,0-2.93-.59,8.7,8.7,0,0,0-3.69.89,12,12,0,0,1-3.32,1.25,15,15,0,0,1-4.13,0,6.34,6.34,0,0,1-2.73-2.43,3.91,3.91,0,0,0-1-1.11,17.69,17.69,0,0,0,2.58,1.62c.81.3,1.4.52,1.92.67a10.81,10.81,0,0,0,3.47-.08,21.91,21.91,0,0,0,3-1.47,8.05,8.05,0,0,1,3.76-.81,11.83,11.83,0,0,1,3.08.66c.1-1.37,0-5.24,0-5.24l1.67,0V90.39l-1.67,0V87.87H93.05V91a21.67,21.67,0,0,0-3.64,0c-1.28.2-2.26,1-3.24,1s-2.66.39-3.84-.3a21.48,21.48,0,0,1-4.82-4.62,10.29,10.29,0,0,0,1.38,4.72A11.76,11.76,0,0,0,81.45,95a7.74,7.74,0,0,0,3,1.28c1.58.09,3.84-1,5-1.58a28,28,0,0,1,3.54-1.27v1.47a9.09,9.09,0,0,0-2.26.39,35.71,35.71,0,0,1-4.34,2.27,6.82,6.82,0,0,1-4.13-.67,18.41,18.41,0,0,1-3.54-3A8,8,0,0,1,77.49,91a31,31,0,0,0,.44,8.93,5.82,5.82,0,0,0,2.27,2.82,10.22,10.22,0,0,0,2.74.72c1.59.17,9.34.11,9.34.11l0,1.19,5.8,0,.08,0Z"/>
            <polygon class="cls-2" points="98.19 104.71 98.11 104.73 98.19 104.73 98.19 104.71"/>
            <path class="cls-2" d="M111.74,147.77c0-.76,0-34.86-.08-55l-5.39.14.16,50.48s-4.92.49-6.59.89a43,43,0,0,1-6.69.79c-1.38,0-8.61-.11-11.26-5.32a13.39,13.39,0,0,0,6.44,3.35,18.27,18.27,0,0,0,6.88.49c4-.39,7.58-1.18,9.54-1.18-.06-.82,0-31,0-49.47,0-.93,0-1.84,0-2.71,0-6.8,0-11.46,0-11.46l-4.81.59V106l-1.75,0v-1.21h-.08L91,107v1.36l7.21,2.85v-3.07h1.62l-.17,29.34a31.42,31.42,0,0,1-9.44,1.67c-4.43-.09-10.82-1.76-13.09-7.27.4,3.83,1.48,8.55,2.27,10s3.05,4.62,5.11,5.7,6.59,1.77,9.05,1.77c4.43,0,9.35-1.13,12.59-1,4.26.19,8.68,1.15,12.15,3.66A21.76,21.76,0,0,0,111.74,147.77Z"/>
            <path class="cls-2" d="M76.82,69.18s.61,6.71,4.57,8.95c3.16,1.78,8.32,1.76,11.66,1.76V83a24.37,24.37,0,0,0-6.88-1.18A23.4,23.4,0,0,0,76.92,84a4.66,4.66,0,0,1,2.16,1.67c.5.79,1.28,2.66,1.68,3.25a2.91,2.91,0,0,0,1.87,1.47,8.65,8.65,0,0,0,3.93,0c.69-.29,2.07-2.06,3-2.06h8.76s7.8,0,7.89,0V85.89h-5.82s-9.15-.1-11.71,0-2.53,1.66-4.32,1.68c-1.58,0-1.87-.88-2.76-2.06a5.22,5.22,0,0,0,2.76.69c1.62-.18,3-1.18,4-1.33,1.45-.23,9.83.14,9.83.14V79.9h1.48s11.31-.22,12.12-.25c.08,0,10.55-1.4,14.24-10.86C121.18,69,76.82,69.18,76.82,69.18Z"/>
            <path class="cls-2" d="M65.58,113.33V91.65H51.7a8.48,8.48,0,0,0,5.12,5.11s0,1.8.13,3.2c-3.39-.13-4.29.45-5.5,2.31-.88,1.33-1,5.11,3.19,8.31,2.74,2.1,9.53,4.54,13.63,4.8A5.72,5.72,0,0,1,65.58,113.33Zm-3.52-1.86-1.72-1,.06-13.88,1.92-.51Z"/>
            <path d="M73.06,23.54a3.83,3.83,0,1,1-3.83-3.83A3.84,3.84,0,0,1,73.06,23.54Z"/>
            <path d="M137.18,26a3.83,3.83,0,1,1,0-5.41A3.81,3.81,0,0,1,137.18,26Z"/>
            <path d="M180.79,73.06a3.83,3.83,0,1,1,3.83-3.83A3.84,3.84,0,0,1,180.79,73.06Z"/>
            <path d="M178.35,137.18a3.83,3.83,0,1,1,5.41,0A3.81,3.81,0,0,1,178.35,137.18Z"/>
            <path d="M131.28,180.79a3.83,3.83,0,1,1,3.83,3.83A3.83,3.83,0,0,1,131.28,180.79Z"/>
            <path d="M67.15,178.35a3.83,3.83,0,1,1,0,5.41A3.83,3.83,0,0,1,67.15,178.35Z"/>
            <path d="M23.54,131.28a3.83,3.83,0,1,1-3.83,3.82A3.83,3.83,0,0,1,23.54,131.28Z"/>
            <path d="M26,67.15a3.83,3.83,0,1,1-5.42,0A3.84,3.84,0,0,1,26,67.15Z"/>
        </g>
    </g>
</svg>